<?xml version="1.0" encoding="UTF-8"?>
<svg id="Layer_2" data-name="Layer 2" xmlns="http://www.w3.org/2000/svg" viewBox="0 0 785.97 137.17">
  <g id="Layer_1-2" data-name="Layer 1">
    <g>
      <path d="M785.46,113.18c-1.12-1.2-1.94-2.54-2.61-3.92.54,2.09,1.35,4.14,2.37,6.13h.3c.14-.57.28-1.15.45-1.71-.17-.17-.35-.33-.51-.5Z"/>
      <path d="M744.44,118.39c-1.6-.01-3.3-.01-5.04,0l.3-1.4c.1.02.2.05.3.07v-.02c-.09-.02-.19-.04-.29-.06l.21-.96c.1.02.2.04.3.06l-.21.96h0s.21-.96.21-.96c.06.01.11.02.17.04l.05-.23c-.06-.01-.11-.02-.17-.04l.16-.71c.06,0,.12,0,.18,0l-.16.75s.03,0,.04,0l.16-.76c1.3,0,2.6,0,3.91,0l34.11.2c-2.89-4.56-4.88-9.43-5.72-14.43l-15.3-3.4,8.06-1.27-.72-.56,7.56,1.64c0-.11-.01-.22-.02-.33l-8.1-1.75-7.75-6.08c.27,0,.53-.01.75-.01.48,0,.8.02.9.09.27-.04.8-.07,1.23-.12.78-.08,1.36-.14.02-.14.57-.03,1.54-.13,2.31-.2.79-.06,1.28-.13,1.1-.03,1.34-.2,2.58-.43,3.74-.66-.54-.31-1.07-.62-1.61-.94-3.24.53-7.03.9-9.32,1.2.62-.1.42-.12.08-.14-.14,0-.29-.01-.43-.02l-1.85-1.45c-.17,0-.35.01-.52.02l1.83,1.38c-2.74.14-7.03.72-11.47.66,0,0,0,0,0,0,.86-.14.36-.09-.22-.06-.87-.2-1.65-.25-2.32-.27-.72-.02-1.16,0-1.69,0-.51,0-1.02-.02-1.52-.07-3.19-.3-6.77-1.21-10.62-1.51.44.04.32.01-.2-.04-3.03-.11-6.06-.26-9.08-.46-3.18-.21-6.35-.46-9.51-.77-5.6-.32-10.43-.5-14.68-.45-2.29.01-4.41.01-6.43,0-.15,0-.31-.02-.46-.02.09,0,.18.01.28.02-.33,0-.67,0-1,0,.19-.02.45-.02.72-.01-.07,0-.13-.01-.19-.02.07,0,.14,0,.22-.01.36,0,.72-.01,1.11-.02,2.53-.03,5.17-.05,7.78-.08v-.19c-2.8.07-5.36.13-7.78.19-.35.01-.7.02-1.05.03-.25,0-.49.02-.73.03-.76-.1-1.04-.19-1.85-.08.44.07.51.12.43.15-1.05-.01-2.07-.02-3.08-.04-.82-.22-1.74-.39-3.4-.3-4.37-.62-7.3-.21-11.45-.62l-.48-.18.75-.19c.66-.03,1.22-.05,1.04.05,1.06-.2-.1-.11-.71-.13l3.18-.8c.66-.02,1.39-.03,2.32.05-.6-.06-1.19-.12-1.79-.18l3.43-.86c1.25-.04,2.59-.07,3.93-.07l-1.48-.17c1.27.05,2.14-.24.65-.41-.03.1-.51.13-1.07.13l1.23-.31c.88-.05,1.76-.1,2.61-.16,3.61.11,7.37.19,11.06.27-2.13-.05-4.79-.13-7.74-.24.61-.05,1.13-.1,1.59-.16.41,0,.84.02,1.27.02,3.07.05,6.56.02,9.03-.08v-.24s-.43,0-.85,0c.22,0,.45,0,.85,0v-.09c-2.93.09-5.64.11-8.2.09.9-.15,1.77-.3,3.17-.41-1.05-.25-2.18.17-3,.25.27-.05.86-.38,2.5-.46-.28-.03-.55-.07-.82-.1,1.21,0,2.43.03,3.64.03,1.16,0,2.55,0,3.92,0,0-.06.03-.12.04-.19-.6,0-1.21-.02-1.81-.02-.97,0-1.91,0-2.83,0l3.06-.21c1.12-.36-1.35-.02-1.6-.16.21-.05.49-.08.8-.11-1.42.06-1.66-.08-2.71.18,1.44.04-.58.25-.08.31-2.87,0-5.49,0-7.82-.02l2.56-.64c3.11.1,6.18.13,9.15.08v-.46c.36,0,.72,0,1.11,0,.28,0,.53.01.78.02.04-.03.07-.07.11-.1-.45,0-.9-.02-1.36-.02h-.66s-.01-.54-.01-.54c-2.23.08-4.06.14-5.69.17l2.16-.54c1.6-.05,3.16-.13,4.64-.25.73-.06,1.44-.11,2.13-.17.87.07,1.58.08,1.85-.05.4.14,1.01.27,1.71.39-.55.09-1.15.19-1.77.3.72-.05,1.59-.14,2.44-.19.67.1,1.37.2,2.03.29,1.4.18,2.57.34,2.71.53.65,0,3.2.36,1.24-.05,1.13.19,3.6.26,3.17.39,4.57.16,8.17-.13,10.27-.53-1.15,0-2.31,0-3.51-.02.66-.13.99-.3,1.6-.37.89.02.59.06.57.12,1.51-.26.08-.16.34-.3-.23-.03-.46-.06-.69-.09-1.46.01-3.66.02-6.13-.05-.76-.01-1.56-.04-2.37-.09-.81-.04-1.57-.06-2.37-.12-.78-.05-1.51-.09-2.18-.13-.39-.02-.74-.03-1.07-.04,1.13-.08,2.27-.06,1.35-.2.45-.07.92-.15,1.38-.19l.7-.06.35-.02h.51c1.43-.02,3-.08,4.59-.27,1.59-.18,3.13-.48,4.47-.78,1.25-.28,2.8-.66,3.11-.68,1.26-.19,3.15-.09,5.21.09,1.03.08,2.12.17,3.25.23.57.03,1.12.04,1.74.04.72,0,1.44-.03,2.13-.1.22-.32,1.91-1.86,3.47-4.29.78-1.21,1.5-2.61,2.2-4.08.71-1.47,1.39-3.02,2.46-4.56.52-.76,1.11-1.54,1.76-2.21.64-.66,1.33-1.21,2.05-1.71.26-.18.53-.35.8-.53l.23,3.07c-.01-.16-.02-.32-.04-.48-.06-.86-.13-1.73-.19-2.59,0,0,0,0,0,0-.01-.14-.02-.28-.03-.43v-.11c0,.18.02.35.03.53.1-.06.19-.13.29-.19.23-.11.3-.25.31-.4l.02-.11v-.03s-.02.21-.02.21l-.03.19-.02.14s0-.02,0-.03c0-.03,0-.07.01-.1v.08s0-.03,0-.05c.05-.37.11-.74.17-1.11.07-.48.15-.97.23-1.42.04-.24.08-.47.12-.7l.18-.99,7.06,1.66,1.4-.07s16.57-18.58-2.54-23.94l.35-.55-3.84-.16c-.47-.06-.89-.1-1.31-.13.03-.02.06-.04.1-.07l1.1.08c-.42-.04-.75-.08-1.05-.11.21-.13.54-.33.97-.59.18-.02.35-.03.51-.05-.12-.01-.24-.02-.36-.03.79-.49,1.85-1.2,3-2.12,2.19-1.71,4.48-4.22,6.81-6.7.59-.62,1.18-1.23,1.79-1.83.55-.61,1.39-1.16,2.08-1.66,1.46-1.01,2.9-1.82,4.08-2.53,2.36-1.41,3.57-2.58,3.67-2.94.99.37,1.51.53,1.8.61.3.09.42.11.5.19-.09-.2-.21-.29-.84-.52-.58-.19-2.16-.8-3.8-1.27-.24.19-.51.38-.77.58-1.93-.57-3.38-.85-4.16-1.02-.8-.16-1.18-.28-1.31-.36-.18-.09-.36-.2-.89-.32-.52-.12-1.44-.25-2.81-.37-.11-.33,1.01-.44,3.17-.33.28.02.57.04.88.06.44.06.9.11,1.36.17.91.15,1.83.35,2.68.57,1.71.46,3.16,1,4.13,1.33-1.69-.67-4.92-2.04-8.17-2.46-2.15-.3-3.6-.36-4.4-.09-1.68-.32-1.44-.51-1.45-.71.02-.1,0-.2-.2-.32-.2-.13-.63-.27-1.25-.47-.22-.02-.45-.05-.68-.07l-.34-.04-.17-.02c-.06,0-.08,0-.28-.06-1.28-.33-2.59-.61-3.9-.85-2.61-.48-5.16-.78-7.41-1.22l.09-.11c-5.5-.88-9.26-.63-12.64-.53-3.17.12-6.73.11-11-.47l.94-.16c-3.03-.56-9.08-.43-14.56-1.17,1.56.23,2.9.78-.42.66-3.14-.4-5.85-.57-8.23-.73-2.35-.17-4.53-.36-6.82-.8l-4.52.28c-2.8-.22-6.7-.53-11.58-.67-.61-.01-1.24-.03-1.88-.04-.81,0-1.64,0-2.44.04-1.61.07-3.17.22-4.65.4-2.96.36-5.55.79-7.63.91-1.69.14-4.55-.05-7.41-.29-2.9-.26-6.04-.63-9.4-.99-3.36-.36-6.95-.71-10.81-.83-1.91-.08-3.92-.06-5.96.02-2.05.1-4.2.29-6.16.58-1.71.27-3.42.54-5.12.8-1.44.22-2.59.33-3.69.35-.57.01-1.05,0-1.69-.04-.74-.06-1.48-.12-2.22-.18-1.72-.16-3.43-.32-5.12-.47-1.84-.14-3.82-.25-5.96-.21-1.08.03-2.18.08-3.36.22-.84.11-1.68.21-2.52.32-2.97.39-5.68.66-8.2.78-2.53.12-4.87.09-7.21-.06-2.38-.14-4.94-.38-7.51-.5-2.57-.13-5.18-.13-7.65.09-1,.11-1.93.21-2.81.3-.69.09-1.37.12-1.97.18l.76-.16c-3.67.36-8.11.4-13.35.42-2.62.01-5.46.02-8.5.14-1.53.06-3.1.16-4.71.29-.82.08-1.64.16-2.47.24-.81.1-1.62.2-2.44.31-1.97.28-4.36.3-7.05.15-2.71-.15-5.71-.48-9.06-.77-.86-.07-1.72-.13-2.58-.2-.97-.05-1.95-.1-2.9-.11-1.91-.03-3.78.03-5.58.14-3.6.22-6.89.6-9.87.83-1.5.12-2.9.19-4.25.22-1.39.02-2.95,0-4.48-.02-3.1-.06-6.41-.19-9.92-.16-1.75.02-3.55.07-5.36.2-.91.06-1.82.14-2.73.23-.8.1-1.6.19-2.4.28-2.17.26-4.66.23-7.37.07-2.98-.22-5.89-.44-8.72-.65-3.52-.22-6.89-.04-9.75.24-5.8.59-10,1.2-13.24,1.06l-.38-.08c-.12-.02-.25-.05-.48-.08-.42-.06-.84-.12-1.27-.18-.86-.1-1.75-.18-2.66-.24-1.81-.11-3.67-.1-5.47-.04-3.62.13-6.95.49-9.64.62,3.06,0,2.02.54-.34.71-1.13.08-1.65.13-2.3.13-.62.02-1.18.01-1.68,0-1.04-.03-1.76-.05-2.26-.07-1.06-.04-1.21.01-1.36.07-.16.06-.29.14-1.46.11-.59-.01-1.43-.06-2.73-.14-1.3-.08-3.07-.22-5.6-.29-3.12-.07-7.21.3-11.22.8-2,.23-4.01.46-5.9.54-.98.05-1.81.04-2.82,0-1.33-.06-2.69-.1-4.07-.12-5.5-.08-11.25.19-16.92.36-2.84.08-5.65.14-8.42.1-2.7-.04-5.66-.2-8.66-.34-3.01-.14-6.15-.28-9.38-.26-3.21,0-6.55.19-9.75.57-4.49.52-9.43.13-14.37-.27-4.93-.42-9.93-.81-14.42-.65-2.24.05-4.36.27-6.25.52l-.33.04h-.16s-.31.04-.31.04c-.19.03-.41.02-.61.04-.39.03-.81,0-1.18,0-1.65.25-3.81.18-6.51-.03-2.66-.19-5.94-.48-9.59-.18-3.56.32-6.31.97-8.27,1.22-1,.14-1.71.21-2.51.23-1.47.02-2.86.1-4.18.24l1.06-.26c-1.44.08-3.65.25-6.26.48-2.6.23-5.58.54-8.5.59-.74,0-1.44,0-2.21-.02-.9-.03-1.81-.07-2.74-.11-1.9-.08-3.95-.16-6.17-.18-2.21-.02-4.6.04-7.05.25-1.23.12-2.47.25-3.7.45-.76.12-.91.12-1.23.17-.29.05-.65.04-.97.07-2.74.15-6.61-.56-11.44-.94-2.41-.17-5.08-.2-7.86.18-.51.07-1.01.14-1.5.21-.36.06-.72.09-1.08.14-.72.08-1.45.13-2.18.17-2.91.14-5.91,0-8.64-.09-2.73-.1-5.13-.11-6.78-.04l1.75.13c-1.44.08-2.67.15-3.75.21-1.06.07-1.96.13-2.76.18-1.56.1-2.62.12-3.62.1-1.95-.05-3.66-.16-7.09-.15.46.49-1.2,1.01-3.19,1.22-.5.06-1.02.08-1.54.11-.84,0-1.73,0-2.55.04-1.64.07-3.09.2-4.07.31l.14-.24c-1.5.16-3.38.49-5.27.87-1.88.37-3.77.77-5.5.98-.79.1-1.87.17-2.97.21-1.09.05-2.22.08-3.37.1-2.43.05-4.82.09-7,.13l.36-.57c-1.91.17-4.34.38-7.02.79-.64.11-1.3.22-1.96.33-.45.07-.88.16-1.35.21-.93.11-1.91.2-2.93.22-4.03.12-8.63-.29-11.33-.28-1.53-.06-3.22-.11-5.09-.05-.92.01-1.91.09-2.91.15-.88.09-1.78.18-2.7.28-2.86.27-6.41.2-10.69.44-1.07.07-2.18.15-3.34.3l-1.17.12c-.37.02-.73.06-1.12.06-1.53.06-3.18.02-4.95-.08-1.76-.1-3.62-.26-5.56-.41-1-.07-1.99-.14-2.98-.21-.51-.03-1.02-.05-1.53-.08l-.88-.03h-.97c-4.41-.67-8.35-.39-11.21-.57l-1.17.3s-.68,1.3-1.53,3.24c-.85,1.95-2.01,4.47-2.96,7.11-.48,1.31-.81,2.68-.88,4.03-.04,1.35.04,2.69.8,3.95.73,1.27,2.01,2.42,3.89,3.25,1.85.84,4.32,1.26,6.77,1.41l-.26.61c1.29-.22,2.42-.4,3.41-.51.8,0,1.49-.01,2.07-.02.25,0,.49,0,.69,0,.21,0,.58.01.81.02,1.02.03,1.48.05,1.3.32-.99-.11-2.16-.21-2.63-.24-.65-.02-1.35-.02-2.16.04,1.71-.04,1.81.13,1.56.25-.28.13-1.12.33-1.8.56.74-.04,1.4-.05,1.94,0,.6.04.86.13,1.72.28.43-.07.28-.14-.06-.22-.17-.03-.39-.08-.61-.12-.16-.03-.27-.06-.38-.09.25-.05,1.03-.05,1.7-.07.7-.01,1.46-.02,2.25,0,1.59.03,3.32.14,5,.41,2.67.23,2.79.44,2.98.69.21.22.44.55,3.93.58,1.11,0,2.24-.03,3.42-.12-.56.85-1.18,1.85-1.76,2.95-.61,0-1.27-.01-1.98-.06-1.77-.12-3.51-.25-5.23-.37-.8-.23-1.67-.44-2.59-.65-1.03-.2-2.08-.37-3.12-.46-2.1-.22-4.16-.2-5.89-.19l-1.41.4s-.77,1.37-1.54,3.41c-.77,2.04-1.67,4.73-2.21,7.48-.43,2.25-.52,4.57.28,6.58L0,65.88l38.49,7.99c-2.29.29-4.51.59-6.29.67-.39.14.17.15.17.28,1.38-.48,3.8.09,6.03-.46l-1.08-.02c-.09-.19.91-.23,2.03-.29l2.81.58c-.1.02-.2.03-.3.05.11-.01.21-.03.32-.05l2.35.49c-.29.05-.57.1-.86.15-.04-.01-.08-.03-.15-.04.04.02.09.03.14.05-.48.09-.97.18-1.46.27l-1.59-.12s-.01-.06-.03-.1c.88-.1,1.61-.21,1.9-.37-.78.14-1.39.22-1.93.28-.03-.17.12-.37,1.52-.31-1.01-.08-2.03-.15-3.04-.2l1.44.34c-2.53-.15-2.66.23-4.18.14l.52.22c-.42.02-.9.05-1.45.1l1.63-.02.09.04-.88.19c.29-.04.66-.08,1.06-.11l.18.08c.32-.2,2.59-.05,3.59.02-.82-.01-.69.04-.28.11-1.63.32-3.36.66-5.26,1,0-.06.71-.29-.37-.07-1.26.37-2.35.65-3.39.9-1.04.27-2.04.56-3.07.84-.25.07-.51.14-.76.22-.35,0-.65-.04-.62-.16-1.17.38-2.5-.29-2.07.02-.06.2,1.13.2,1.86.14.18.03.17.1-.02.13h.43c-.67.18-1.35.38-2.09.64-1,.38-2.1.83-3.32,1.37-.35,0-.69-.01-1.06-.1.06.04.11.08.17.14.19-.01.48,0,.79,0-.18.08-.36.16-.55.25.2-.04.54-.14.9-.24.12,0,.25,0,.38.01l-.45.25c.24-.1.43-.18.6-.25.56.01,1.1.02,1.36-.04-.42-.05-.78-.06-1.11-.06.56-.25.42-.23.02-.13l-.24.14c-.1,0-.19,0-.29.01.2-.06.38-.11.53-.15l.84-.47c.24-.08.51-.17.82-.27.12.25.3.61.56,1.05.16.28.36.59.58.93.11.17.23.34.36.52.16.2.33.4.51.62,1.31,1.64,3.78,3.76,6.81,4.77.35.12.68.2,1.02.28l.03.25c-.17-.04-.37-.09-.62-.16l.03.22c-.77-.21-1.59-.52-2.36-.87.75.34,1.59.68,2.36.89l.04.33c-.46.03-.9.06-1.34.09l1.36.02.37,3.01c-.78.17-.68.47-2.94.6-2.36-.05-5.45.01-8.57.02.26-.08-.45-.15-.89-.25l.18.17c-1.17-.1-1.66-.09-2.16-.07,4.11.02,1.53.58,5.41.53-.02.02-.05.02-.08.03,2.11-.05,4.68-.17,5.84-.2.63-.07,2.07-.11,3.29-.17l.1.83c-.69.09-1.41.17-2.16.24-.26-.07-.51-.14-.73-.18l.02.25c-.14.01-.27.03-.42.04.17.02.3.03.42.04v.1c.54.06,1.07.14,1.6.23-.8-.07-.74,0-.28.15-1.63.04-3.78.1-5.25.11-.13.04-1.48.07-3.13.05-1.64-.02-3.57-.09-4.86-.13.06.09.22.16.43.2-.33-.07-.65-.15-1-.22-.04,0-.07-.01-.1-.02.56.03.88,0,.72-.08-1.29-.02-1.91-.42-2.41-.47-.78-.03-1.58-.03-2.37-.1.73.2.7.28.4.31.42.04.98.1,1.56.16.33.04.67.07.99.1,0,.02.01.03.04.05.05.03.12.06.21.09.12.03.26.08.41.12.48.12,1.02.26,1.51.38.6.16,1.12.3,1.42.41-.1-.06-.06-.07.12-.05.29.03,1.11.22,1.73.36.28-.05-.42-.31-1.6-.64-.02,0-.04-.01-.06-.02,1.11,0,2.29.02,2.84.16-.43.07-.87.12-1.31.18,2.77.07,3.49.16,5.74.11l.21.22c.6-.06,1.24-.09,1.85-.12,0,.03.05.06.13.1-.08.02-.15.05-.23.07-.13-.03-.26-.07-.39-.1l.02.2s.05-.02.09-.02c-.03,0-.06.02-.09.03v.07s-.03-.05-.01-.07c-.03,0-.06.02-.09.03.05.02.07.04.11.05l.02.15.61-.24c.09.01.18.02.28.04-.08-.02-.15-.04-.23-.06l.15-.06c.53.15,1.06.32,1.57.5-.99.1-1.86.21-2.46.36.95-.06,1.89-.14,2.83-.23.1.04.2.07.3.11-.06.03-.12.07-.19.1.1-.03.18-.05.26-.07.03.01.06.02.08.03-.03.03-.02.11-.03.17-.09,0-.18,0-.27,0h.27s0,.02,0,.03c-.06.04-.11.07-.15.1-.19.05-.58.01-1.48-.27.43.14.86.3,1.28.47-.46.31-.88.59-.34.46.21-.11.47-.21.73-.3.1.04.19.08.28.13-.36.12-.65.23-.83.31-1.5-.03-2.92-.07-4.02-.32.02-.06.33-.09-.09-.17-.14,0-.27,0-.4,0-.12,0-.26-.01-.23,0,0,.02-.12,0-.17-.02-.13-.04-.23-.11-.36-.16-.08-.04-.17-.07-.28-.09h-.09s-.05-.01-.05-.01c-.03,0,0,.01-.12-.02-.15-.04-.33-.09-.49-.14,1.21-.1,2.4-.23,3.58-.37-1.34.1-2.71.17-4.08.23-.19-.05-.36-.1-.56-.16.08.04.2.11.34.17-.18,0-.36.02-.54.02l.83.11s.1.05.14.07c.2.1.4.21.51.27.21.02.34.02.34-.04.06.08.18.15.34.19.12.03.26.05.41.04.07,0,.14-.01.21-.02.03,0,.01-.02.03-.03.08,0,.15,0,.23,0,.06.09-.24.07-.25.07.02.02-.12,0-.12.06.03.01.1.03.09.04-.03,0,.07.03.2.05.24.04.5.09.8.14-.17.08-.07.19-.51.16.44.02.62-.11,1.46,0-.19.01-.02.06-.21.08.65-.11,1.77.04,2.93.17.7.08,1.42.15,1.92.15l.26,2.08-.95.1c-.11.02-.29.06-.58.1.38,0,.99-.04,1.55-.08l.06.5c-.24.06-.16.09.01.12l.03.22c-.13.02-.28.03-.48.05-1.5-.04-5.99.21-8.7-.09l.28-.03c-1.51,0-2.43.03-2.88.11-.08-.03-.16-.06-.24-.09-.31-.11-.64-.22-1-.35l.99.45s.05.02.08.04c-.14.05-.17.1-.1.17-.47-.16-.96-.39-1.2-.45l.19.31c.38.14.72.26,1.05.38.26.09.5.16.68.21.05.02.09.03.12.03-.2.02-.42.04-.7.04.36,0,.66,0,.94,0,.07,0,.14.01.21.02.2.02.36.05.48.18l.26-.25c.6-.06.93-.14,1.22-.23.51-.15.96-.26,2.57-.25.79.12,2.71.13,4.82.07.49-.01.98-.03,1.47-.05l.1.8-.48.03c.17,0,.32-.01.48-.02v.03c-.16.02-.35.04-.62.06.26,0,.46,0,.63,0l.04.36c.17-.07.37-.14.57-.22l.09.76c-.17,0-.35,0-.56-.02-.17,0-.36-.02-.56-.03-.25-.05-.22-.12.05-.13l-2.03-.09c.09.05.2.1.33.14-.42.01-.99.02-1.19.1,0,.07.25.09.78.13,2.66-.08-.19-.01.53-.2.25.07.55.13.93.18.31.04.7.08,1.1.11.21.02.44.04.65.06l.02.14s.1-.05.15-.08v-.05s.05,0,.08,0c-.03.01-.05.03-.08.04l.03.28s-.03,0-.05,0c-.46,0-.93,0-1.27.03-.77-.08-.94-.2-.97-.26-.29.14-.44.38-2.07.29l-.12-.3c-1.11.16-2.37-.02-3.34-.19-.96-.17-1.73-.34-1.93-.13-.18-.03-.18-.09-.05-.11-.18,0-.36,0-.55,0,.29.05.6.18.53.28l-.11.02h.19s.32.04.32.04l.7.06-.26.2c.5-.12,1.68,0,2.89.1,1.19.1,2.39.2,2.42.11l2.87.3c-1.09.05-2.19.09-3.31.11l1.63-.19c-3.18-.06-6.01.47-9.88.48,2.1.03,4.08-.02,6.04-.09l3.22.28c1.69-.35,3.11-.28,4.6-.31l.07.59c-.41-.04-.82-.07-1.25-.1.32.13.71.24,1.12.35-1.52-.02-3.04-.03-4.62-.08-.56.11-1.11.22-1.68.32-1.57.03-3.16.06-4.82.04l.34-.16c-1.25.01-2.55,0-3.86-.03l1.43.26c-.43,0-.86,0-1.29-.01l20,3.41c2.17-.2,3.43-.56,5.28-.79.02,0,.03.01.07.02l.43.03c-.79.23-.12.09.38.03l1.41.1,2.39.15-.79.17,3.52-.27c-1.05-.12-2.05-.22-3.05-.31l1.28-.34,1.48-.08,1.54-.05-.05.26.83-.15c-.87-.08.66-.26,1.12-.39-.2-.09.39.27,2.54-.06.13.02.25.04.37.06.09-.32,1.83-.24,3.66-.36.72-.05,1.24-.01,1.6.06l.34.34c-.72.04.06.05.85.1.05,0,.09,0,.14.01l-2.07.34c2.36-.09.39.38,3.26.22l.64-.32,1.14-.07s-.03.01-.04.02c.09,0,.18-.01.27-.02l1.91.14-.55.02c.23-.01.41-.02.57-.02l.82.06c-.01.07-.29.17.47.2l1-.08c.34.03.76.05,1.32.05-.39-.02-.61-.06-.76-.1l1.36-.1-1.65.02c-.08-.03-.17-.05-.29-.07.52-.12,1.27-.28.18-.38,1.62-.05,3.31-.07,5.04-.08,1.66.17,2.81.45,4.4.29-.68-.1-.86-.19-.98-.28l1.82-.04c1.42.06-.07.24,1.09.2l1.21-.22c.71.02,1.57.05,2.28.07.73.02,1.32.06,1.45.13l-.48.04c-.22.01-.44.02-.69.04-.63.15-.06.16.54.17-1.08.05-2.24.11-3.03.2.31.44,2.42-.2,2.55.21-.19.04-.56.11-.75.08v-.07s-.29.07-.29.07c-.4-.01-.7-.04-.84-.09l-2.74.4h.97s-.1.01-.15.02c-.27,0-.58,0-.91,0l-.86-.14c.75-.14,2.22-.1,1.7-.32l-2.08.39c-.17-.06-.23-.11-.23-.15-.27.09-.56.17-.65.24-.28,0-.56,0-.85,0l-.09-.26-.95.24c1.35-.51-1.65,0-2.91-.27l-1.52.35h.23c-.36,0-.72,0-1.08.01l.03-.07c-2.09-.27-1.14-.06-.95.03l-2.12-.24c-.61.06-1.24.12-1.82.19.11-.07.21-.13.29-.17-.07,0-.16,0-.25-.01l-3.34.34c.09-.14,2.53-.08.9-.34-.93,0-2.24-.08-2.54.04-.23-.02-.51-.04-.9-.06l1.21-.17c-.94.01-1.67.18-2.4.28-.86-.44,1.47-.34-.35-.7-2.83.1,1.34.37-.34.61-1.05.15-3.51.29-4.72.29.75.06,1.69.12,1.49.2.1,0,.21-.01.34-.01.69.09-.02.13-.5.2.23.03,1.15.08.67.15l2.37-.16c1.17.02-.04.26.91.18l.98-.27c1.17.02,2.83-.03,3.04.13l-.97.14c2.13.12,2.33,0,2.74-.13,1.49-.06,2.43-.2,3.95-.23.11.01.23.03.35.04l.21-.04c.4,0,.84,0,1.33.03l.28.06.02-.05,1.93-.23c-3.35.53.52.07-.35.33l1.51-.09s.02,0,.03,0c0,0,.01,0,.01-.01l.35-.02c.22.16-.6.23-.89.31.81.03,1.38,0,1.92-.04h0s1.21-.05,1.21-.05h-.6c.47-.06.97-.12,1.64-.15l.58.06c-.32.04-.62.08-.89.12l1.47-.06,2.12.2c3.92.1,3.48-.28,5.48-.42.66,0,1.34-.02,2-.03l-.09.34c1.17.02,2.48,0,3.73-.01-2.52.02-2.66-.07-2.77-.18-.06-.05-.12-.1-.4-.15,1.12-.02,2.24-.03,3.37-.05.58.04,1.45.02,1.83.11l.28-.14c5.33-.08,10.71-.16,15.86-.23.05,0,.11,0,.16,0-.45.16-1.16.28-2.08.24l.54.15c1.19-.08,1.5-.23,1.68-.4,1.03-.02,2.06-.04,3.07-.07,1.07.14,2.15.34,3.54.36-.57.11-1.13.15-1.67.12.46.04.5.1.42.15-.29.02-.58.04-.86.06l.49.36c1.89-.15,3.61-.23,5.14-.36.16.04.25.09.2.16,1.05-.02,5.05-.3,6.14-.27l-1.09-.02c2.35-.61,2.12.13,3.07.39-.91-.04-1.89-.06-2.86,0-1.06.16,2.46.39-.6.37l2.27.1c.38,0,.68.03.91.05-.66.04-1.32.07-1.99.1-1.14.06-2.31.13-3.48.2l.16-.06-1.31.13h0c-.25.01-.51.03-.77.04l.48-.15h-2.98c.91-.24.72-.14.04-.33-1.03.19-1.15.29-.85.35-.59.17-2.59.11-4.53.05-1.98-.05-3.89-.08-4.2.14,1.56,0,1.64.06,1.45.14-.08,0-.15,0-.24,0l.13.04c-.16.06-.34.12-.28.18-1.18.03-2.51.06-3.94.09.42-.04.81-.07,1.26-.09-1.86.06-2.36.1-2.14.11-2.37.06-4.93.12-7.44.19,1.03.03-.78.18-2.1.27-2.18.05-4.85.11-8.16.15l.09-.06-1.62.07v.22c6.62-.15,13.8-.31,21.12-.52l.06.05c-1,.28-2.06.18-3,.15.43.07.5.25,0,.34-.37,0-1.1.02-1.1-.11-2.78.14-1.2.79-1.76.9.18.1.41.13.66.13.03.07-.04.13-.03.18-.93.14-.99.38-1.47.59-1.77.03-3.61.07-5.52.1.09-.07-.07-.17-.18-.22l-1.82.15c-.08.02-.21.04-.42.08.63.05,2.21-.14,2.07,0-2.75.05-5.61.09-8.56.13v.11s-.48.02-.48.02l.48.08v.22c.4,0,.78-.02,1.16-.03h.05c-.41.02-.8.03-1.21.04v.17c-.74.1-.83.25-.48.45.21.03.35,0,.49-.05v.12c.17,0,.34,0,.51-.01-.23.14-.47.3-1.04.33,1.25-.05,1.65-.21,1.98-.35.63-.02,1.25-.03,1.85-.05.13.04.25.09.34.13.32-.05.72-.11,1.16-.17.47-.01.92-.03,1.36-.04,1.6.02,3.47,0,4.77.03,1.41-.06,1.79-.11,2.16-.21,3.29-.02,7.16-.06,11.44-.12.97.03,1.91.09,2.81.22-.06-.13.1-.21.38-.26,2.57-.04,5.26-.08,8.04-.13-.24.17-.46.37-1.57.29,1.61.51,1.92-.42,3.05.07-.17-.03-.52.03-.7.06h1.02c-.51-.15.46-.29.24-.45.26,0,.53,0,.79-.01.03.01.06.02.08.03-.02-.01-.02-.02-.03-.03,1.56-.03,3.13-.05,4.73-.08-.36.05-1.25-.02-1.54.12,1.12.57,4.3,0,6.09.32l.4-.18c-.73-.03-1.28-.01-1.66.04-.47-.16-2.34-.08-2.6-.31.28,0,.56,0,.84-.02,1.38.07,2.58.09,3.68-.06-.01,0-.03,0-.04,0,1.07-.02,2.15-.04,3.23-.06,3.43-.07,6.9-.14,10.34-.21h-.24s-.03.14-.03.14l.57-.08c-.11.06-.27.09-.12.15.08-.38,1.52.03,2.3.02l-.03-.28c.34,0,.67-.01,1-.02-.31.11-.6.21-.34.3.53-.1,1.22.27,1.52.03l-.71-.24c.44-.08,1.2-.01,1.25-.13.38,0,.75-.01,1.13-.02.35.07.93-.03,1.24.03-.01,0-.03,0-.04,0l.17.04s.07.06.07.11c-.13.02-.4.08-.52.04v-.06s-.66.19-.66.19c.37-.03.82-.06,1.21-.04-1.02.13-2.55.22-3.41.35-.51,0-1.09-.13-1.29-.1-.03.14.42.19.89.18-.19.05-.29.12-.22.19-.44.03-.81.04-1.15.03-.27-.01-.54-.03-.8-.04-.68-.05-1.31-.12-2.26-.09-.05,0-.11,0-.16,0-.02,0-.04,0-.06,0,.48-.08.28-.15.1-.19-.82.29-2.76-.1-4.09.12-.22,0-.46,0-.68,0-.53-.24,1.44-.28.94-.38-1.62.35-4.05.06-5.95.12.22.37,1.92.15,2.83.27-3.41.04-6.21.17-8.12.27,1.05-.03,2.12-.05,3.2-.08-.05.1-.86.16.05.3l.61-.2c1.26.27,2.13.59,4.08.39l.53.24c.98-.13,4.08-.12,6.03.09,1.07.19,1.83.17,2.47.08-.11.28-4.46.05-4.11.4-2.38-.47-5-.04-7.18-.34-1.68-.34-2.6.3-4.33.14.69.02.95.07,1.02.12-1.08.04-2.17.29-2.8-.04-.42.05-.63.09-.7.13l-.08-.03-1.29.12,1.82.12c.2.05.42.1.52.16-1.86-.03-.5.06-1.48.27l1.55-.19c0,.05-.08.11-.3.17l2.25-.14c0,.13.03.27-1.26.33l1.73.15c-.8.13-1.85.29-2.6.3,3.01.24,3.08-.17,4.31-.37.23.13.54.25,1.02.3h.08c-.5.04-1.11.06-.91.15.84.11,1.65.08,2.46.04-.47,0-1.01,0-1.7-.05l.26-.13,2.25.14c-.27.01-.54.03-.8.04.35,0,.66-.02.92-.04l.66.04c-2.69-.01-.05.26-1.61.34-.83,0-.54-.06-.2-.12-1.39.19-4.33-.2-4.84-.08l-.8.29c1.59.28,2.97-.02,4.5-.1l1.5.17c-2.57.4-1.41.25-4.3.63-.15-.17.25-.28.28-.41-3.2.24-3.9-.72-6.77-.54,1.22.07,1.37.23,1.34.36-.48-.31-2.99,0-3.78-.36.87-.01.69.02.9-.21l-.71.11-.26-.46-1.38.11.51.04c-.55.22-1.74.23-2.73.23.28.39-.54.28-1.04.38l-.27-.51-1.98.21.13-.09c-.68.08-1.39.05-1.76-.04-.4-.09-.57-.23-.47-.35l-3.36.38c-.54-.02-.53-.15-.15-.29l-3.71.26-.22.29c-1.63-.2-3.32.06-4.63.17l-.52-.28c.74-.01,1.29,0,1.84.03l.21-.16c-.59.23-2.38-.12-2.97.18l-.17-.09c-.37,0-3.16.21-3.34.18l.02-.13c-.72-.12-1.5.22-4.45.27l.38-.07h-4.43s1.12-.14,1.12-.14c-2.19-.16-4.09.32-6.5.46l3.89-.16,2.17.35c1.9-.48,3.3.14,5.37-.25-1.72.51,1.11-.02.14.35l2.06-.26c.31.1.47.19.04.26,1.1-.14,2.46-.28,1.41-.09.34.25-.97.43-1.55.6-2.36-.31-2.25.36-4.48.46-.54-.09.21-.23.22-.36l-3.28-.27-1.14.28-3.14.02.21-.16-2.4.07.89.21c-.92.04-1.85.09-2.76.01l-.68-.5c.82.03,1.35-.05,1.88-.16-.9.11-.81-.37-1.48.02-.37-.06.2-.16.39-.26l-1.91.61-5.36.12.57-.11c-1.11.08-.95.24-1.14.34-1.33.25-.88-.4-1.84-.03.33.32,2,.26,3.28.27l2.15.48c-1.71.45-2.39,0-4.09.39h2.39c.34.24-1.14.27-1.88.34l-3.51-.04,12.32,1.52c-.07,0-.14,0-.22,0-2.17.01-4.41.11-7.68-.61l-1.12.3c-1.22-.13-2.26-.09-2.45-.27l1.83-.14c-3.23-.23-7.27-.38-10.14-.72l1.19.18c-1.77.03-3.15.42-5.08.17l-.14-.36c.47.09,2.25.05,1.96.19,2,0-1.95-.2-.65-.33l-3.79.05c-1.23-.11.34-.27-.17-.24-2.16-.36-3.07.13-5.05-.05,2.49.16,4.31.78,7.25,1.03-.77.05-1.53.03-2.25-.04,1.21.17.18.24.16.3,1.07-.19,1.97.12,3.25.05l-.32.2c.56-.16,4.49.05,4.13.38,1.42.09,6.99.24,8.48.36l-1.49-.12c3.99-.48,2.56.7,5.31.83,3.94.39-.34-.48,2.89-.25,1.41.31-.85.22,1.66.36.21.11-.31.14-1.04.04-.52.17,1.88.51,2.94.78.69.14.94.26-.05.32-.17.02-.43.03-.75.04-2.04,0-2.35-.31-2.99-.4,1.2.01,1.8-.13,3.08.15l-1.89-.41c.19.18-.33.2-1.29.06-1.69.01.89.12-.1.19-.2-.01-.43,0-.75.03l.93.27c-3.82-.64-7.15-.56-10.62-.78-.46.03-.99.08-1.85.01,2.69.32.88.4,3.09.61l-.45.08c.46-.07,1.73-.02,2.44.08-.05.13.17.24.15.3l.32-.2,2.17.34-.94-.21,4.24.25c-.28.07.19.18-.56.15,2.14.28,4.02.3,5.64.27.78,0,1.47-.03,2.13-.06l.02.89,2.83-.04c1.73,0,3.59-.02,5.58-.04l-5.21.18c4.11-.06,7.53-.13,10.54-.21.12.02.22.05.3.07-.09-.02-.19-.05-.28-.07.44-.01.87-.02,1.29-.03.85.14,1.83.26.54.25,1.59.07,2.71,0,3.92-.08l.16.03c.61-.03,1.09-.09,1.54-.16.29-.02.58-.04.91-.07.73-.04,1.6-.07,2.7-.05.21.16-.8.28-1.07.37.51-.06,1.02-.18,1.75-.14.47.13-2.02.24-.54.25,1.24-.09,3.25-.18,5.21-.14-.31.28-2.82.43-3.62.71,0,0-.02,0-.03,0,.17.03.26.08.25.17l1.04-.24c1.69.12,4.89.15,6.16.03l-.05.19c1.97.05,1.46.09,3.71.06-.02.09-.29.19-.62.28,1.7-.14,3.94-.2,1.92-.53l2.23.03.15.36c2.74-.01,6.77-.14,9.93.19,1.54.15,1.21.29.45.38,1.93-.06,3.58.04,4.79-.3-.28.15.42.34-.6.36,2.79.07.89-.36,2.99-.32-4.27-.15-5.36,0-9.77-.55l3.53-.07c-.69-.25-2.5-.02-3.75-.03.8-.2,3.09-.34,1.93-.67-1.25,0-1.93-.26-3.39-.44.39.4-2.03.13-3.81.23,2.07-.26,4.37-.47,7.11-.41.45.21,2.72.12,2.98.1,2.22.17-.82.26.19.23,1.32-.24,3.86.58,6.23.18l.23.1-.45-.21c1.77-.03,2.46.21,1.92.33.74-.02,1.33-.03,1.83-.02l2.49.65-1.26.2c1.11.02,1.05-.11,1.42-.16l3.39.89c-5.64.09-13.32.2-18.54.28,1.61.21,9.06-.04,18.64-.26l2.66.7c-.51.04-.94.06-1.16.05.93.35-1.81.17-2.62.37,2.23.16,2.84-.21,3.64-.34.15,0,.27-.01.39-.02l7.96,2.1-.25.04-1.48-.22-2.33.17c1.08.55,2.91,0,4.78.21.04,0,.07.02.11.03-5.52.03-8.67.44-13.41.27l-3.68-.41c-2.32.15-4.12.31-5.6.2l-.96-.16c2.71.25,1.58-.27,3.32-.18l-6.93-.43h-.03c.15-.02.4-.03.8-.07,1.97.13,4.26.05,3.78-.03.51-.05-3.2-.27-3.01-.04l-.37-.46,2.05-.19-1.18-.27-3.19.66-4.24-.05.89.42,2.34-.34.96.16c.64.44-1.79.1-2.36.4h2s-.56.24-.56.24c-2.33.27-8.15-.37-10.16-.24.43.27-.6.43-1.64.6.67.31-1.87-.44-3.4-.22l.45.21-4.46.15-2.16-.21-1.84.58-1.7-.06.68.2c-.81-.02-2.85.01-3.85-.08-.04.17-1.15.32-.54.45-.36-.03-.64.01-.94.08-.21.05-.42.09-.68.15-.13.03-.27.05-.42.07-.08,0-.16.02-.24.03-.08,0-.16.02-.33.02l-.26-.36c-3.74-.17-1.24.25-1.69.41-1.85-.1-3.43-.22-4.06-.14-.75-.2-1.42-.39-2.04-.58-.45.12-1.07.15-1.74.14-.65,0-1.32-.04-1.88-.06-.28,0-.53,0-.76,0-.25.01-.51.03-.75.04-.65.05-1.4.14-2.09.29-1.28-.13.86-.31,2.35-.47.28-.03.57-.07.86-.11.36-.03.71-.06,1.02-.09.73-.06,1.45-.12,1.74-.25l-.3.2c-.82-.04.06.07,1.29.18,1.21.1,2.86.16,2.06-.14-1.2.02-2.17-.08-2.56-.31-.95-.03-1.76-.04-2.43-.02.39-.16-.13-.26-.55-.33-.42-.08-.78-.15-.49-.37-.19-.03-.32-.06-.52-.09-.24-.02-.5-.04-.77-.06-.56-.03-1.19-.04-1.91-.05-1.44-.01-3.28,0-5.39-.12l-.58-.4c-.74,0-1.5,0-2.22,0-.99,0-1.89,0-2.49-.26-3.08.07,1.88.48,0,.74l2.41.02c1.24.04,2.45.03,3.56-.01.5.02.79.19,1.23.35.45.17,1.05.34,2.06.37,1.62,0,2.87,0,3.86.03-1.29.04-1.42.11-1.23.18.15.07.47.14-.42.22-1.05.04-.66-.03-.24-.11-.74.12-1.98.16-3.52.15-1.92,0-4.16-.16-4.77-.13l-.71.08-.65.14c.21.04.41.07.62.1,3.09.34,5.5,0,7.52-.15l1.96.09c-1.5.27-2.13.36-2.7.44-.31.04-.63.08-1.22.14-.59.06-1.42.15-2.88.22-.31-.17.48-.28.52-.4-1.18.04-2.29,0-3.23-.08-2.71-.25-3.93-.94-7.24-1,1.73.17,1.92.35,1.87.48-.64-.34-4.24-.25-5.37-.7,1.26.07,1,.08,1.32-.12l-1.04.04-.34-.48-2.02-.04.74.09c-.82.16-2.58.05-4.06-.07.34.41-.79.23-1.51.27l-.31-.54h-2.9s.2-.09.2-.09c-2.15,0-3.22-.41-2.92-.62l-4.51.04c-.72-.08-.69-.2-.16-.3l-5.07-.12-.34.27c-2.21-.36-4.61-.3-6.47-.35l-.69-.34c1.05.08,1.81.17,2.58.26l.32-.14c-.86.17-3.32-.4-4.22-.19l-.22-.12c-.28-.03-1.31-.06-2.75-.16-1.33-.1-2.5-.22-2.64-.25l.07-.12c-.55-.13-1.15-.16-2.11-.23-.95-.06-2.31-.18-4.05-.42h.47l-2.47-.35-1.08-.13-1.07-.11,1.11-.03c-.26-.05-.49-.08-.73-.11-.26-.03-.63-.05-.95-.07-.69-.03-1.39-.04-2.15-.05-1.51-.01-3.17,0-5.18-.17,2.15.2,4.12.32,5.92.42l1.42.3.66.15c.21.05.32.09.49.14.88-.15,1.72,0,2.64.18.93.18,1.95.4,3.39.43-2.44.14,1.49.21.09.37l3.06.19c.54.2.77.33-.42.24,1.73.11,4.74.25,2.74.23.5.32-1.75.23-2.67.27-1.76-.41-2.54-.45-3.31-.42-.76.03-1.52.11-2.79-.03-.58-.18.3-.19.35-.31-1.23-.28-2.3-.51-3.21-.7-.28.06-.82.11-1.31.15l-4.48-.38.36-.13c-1.23-.09-2.53-.21-3.9-.35l1.45.39c-.77-.06-1.56-.14-2.38-.24-.85-.11-1.58-.22-2.68-.45l-1.25-.74c.57.12,1.08.21,1.55.27.25.03.49.06.72.09.19.02.38.03.56.05.32.02.61.03.91.04-.63-.05-.99-.16-1.25-.25-.43-.15-.74-.26-1.62-.18-.74-.2.47-.08.92-.11-1.41-.03-2.81-.08-4.21-.21-.54-.12-1.07-.26-1.61-.4-.78-.21-1.54-.44-2.3-.68l-1.13-.38-1.01-.36-.87-.3c-.18-.06-.37-.12-.55-.17h.33c-.32-.07-.46-.03-.54.02-.07.04-.11.09-.17.12-.37.03-.39-.08-.61-.23-.08-.06-.14-.12-.3-.16-.15-.04-.35-.06-.77-.06.13.15.54.31.94.44.21.07.46.16.73.25.19.06.38.12.55.19l.17.2c.05.07.08.13.25.23.15.1.31.21.55.35l1,.5c-.39-.09-.75-.18-1.09-.27-.21-.05-.41-.11-.6-.15-.36-.1-.39-.11-.5-.15-.2-.08-.38-.18-.67-.19-.1,0-.22,0-.35.03l.3.08c.22.07.44.15.66.23-.02.25-.48.11-.81.08-.04,0-.07,0-.1,0-.13-.04-.19-.06-.37-.11l-1.13-.27c-.12-.03-.25-.06-.38-.09l35.89,9.58c1.16.21,1.81.3,2.11.33.3.03.27,0,.2-.04-.12-.08-.5-.19,1.47.07.83-.13-.71-.18-2.07-.33-.7-.22-.39-.26.42-.22-.46-.04-.9-.07-1.32-.11.33,0,.21-.05.18-.09-.83-.05-1.63-.1-2.37-.15l-1.32-.41c1.66.23,3.06.3,4.54.36.76.03,1.53.05,2.36.08.65.01,1.35.05,2.16.11-2.86.22.26.06.19.24l3.42.35,2.21-.17,4.37.25-.09.25.91-.09c-.91-.15.75-.2,1.26-.3-.22-.11.42.35,2.99.12l-.17-.24,3.17.1c-1.17-.17-.07-.55,1.11-.45l-1.9-.19,1.29-.21-3.41-.15-.15-.3c1.06.61.73.01,1.9.25-1.07-.49,3.42.02,3.98-.26-.19-.11-4.37-.03-3.84-.19.6-.29,3.73-.18,4.31-.52.94.06,1.4.16,1.83.26l-1.42-.04,2.09.18-.1.32c1.6-.04,4.33.35,5.66.17l-.39.39-3.05-.05-1.34-.3-2.18.13c-1.01.19.34.41.76.57-3.4-.54-.68-.08-1.61-.15l2.24.42-2.61-.03.98-.06c-.66,0-1.16.02-1.55.02,1.09.39.36.47.79.69.01-.06.47-.12.35-.19,1.84.03,3.51.07,5.52.14.69.22,1.64.43.11.43l-.64-.11s-.21.1-.43.15c-.3.07-.7.14-1.06.21-.33.07-.63.14-.77.19.55,0,1.2,0,1.86.02.66.02,1.33.05,2.01.09,1.37.07,2.78.18,4.22.29,2.88.23,5.87.52,8.83.73,1.83.13,3.58.16,5.08.14-1.52-.03-3.25-.11-5.06-.26l-2.96-.31.84-.22c-.77.03-1.77-.05-2.48-.2h2.81s-4.52-.24-4.52-.24l.04-.13-3.02-.12-.93-.27c.43.23.13.37-1.36.24-1.44-.31-1.59-.55-.52-.72.33.04,1.09.07,1.75.1-.17-.13,1.24-.11.35-.25l3.11-.13,3.44.35c-2.07.09-.15.44.52.72l2.1-.15c.27-.01.6-.01,1.01,0,1.99.08,4.68.1,6.67.08,2.03-.02,3.34,0,4.01.16-.27.19-1.15.39-2.99.55-1.79.15-4.79.24-7.8-.06-.39-.05-.75-.1-1.1-.15,1.95.29.91.33-.37.33.39.04.91.07,1.43.1,2,.13,3.74.13,3.08.34,1.58-.07,2.98-.2,4.17-.33l1.94.19c.2-.15.38-.31.55-.46.69-.02,1.43-.09,1.9-.11.21,0,.22-.01.34,0,.03,0,.05.02.07.03.09,0,.22-.01.41-.01.45,0,1.22,0,.62-.24,1.07.05,2.64.19,4.83.36l-.11-.5c-.91-.05-1.43-.12-1.76-.2-.35-.08-.48-.16-.57-.26.98.03,1.95.15,3.13.26,1.19.11,2.61.22,4.67.19-.58-.06-2.18-.14-3.21-.27-1.06-.12-1.72-.25-1.01-.36,1.99.1,3.28.24,4.4.33.29.02.58.03.87.05.14,0,.28,0,.43.01.09,0,.18,0,.27,0,.37,0,.8-.03,1.35-.12.69.17,3.1.06,4.02.27l-.07.32c1.73-.13,4.06.16,5.27.23.96-.02,1.02-.18,1.56-.31-.1.09,1.89.13.64.26l2.01-.21.2.17,3.18.06c.39.4-2.73.08-3.96.08l-.31.28,5.83.23-4.45.13c2.14.29-.34.41,1.07.64,1.22,0,2.78-.34,3.69-.06l-.18-.3c3.55.59,8.04.48,11.28.56l2.31-.21c3.99.07,8.44.48,11.83.17l6.58.26,2.21-.59-3.55-.16.59-.3-2.3.03c-1-.09-1.48-.17-1.94-.38l2.68-.5c2.26.1,4.53.31,6,.54-5.11-.07.26-.03-2.07.08l7.42.13.86-.34,1.76.18c2.06.04,5.47-.1,6.29-.33l-.56.19c1.58-.06,2.88-.14,3.63.08l1.39-.42c3.03.44,3.75-.53,8.73-.63,0-.06-4.48.22-3.92.02l.27-.04c-3.4.08-6.07.4-8.38.29-4.42.07-.66-.55-4.27-.57.67.49-3.12.15-3.97.49l-1.51-.22c-1.34.26-3.89.15-6.21.19l.3-.15c-.85.33-3.66.23-5.69.24l1.6-.28c5.92-.2,9-.13,15.26-.44.04-.19,4.71-.29,2.74-.69,1.98.4,1.81-.02,3.35.05l-3.21.5,3.88-.02c.82-.23.38-.55,1.96-.75-4.43.19-8.47-.18-11.11.1l-1.17-.5c2.36.12,4.1,0,5.77-.15l.32.07c1.24.07,1.52-.1,1.88-.26.11,0,.22-.02.33-.03l.96.33c.17-.02.16-.06.17-.12l1.43.06c-1-.04-1.07-.14-1.11-.25.29-.07.85-.13,1.94-.18l.72.22,2.18-.58,1,.18-.95-.44c-.35,0-.71,0-1.08,0,.05-.11-.24-.2-.36-.32.64-.03,1.24-.04,1.81-.05l.09.03h.64s-.19-.03-.19-.03c.3,0,.6,0,.9,0-.11.02-.24.04-.34.06l2.96-.05c-.01.06-.28.12-.41.15.39-.04.72-.1,1.03-.16.96.07,1.96.11,1.76.3,3.32-.49,6.21,0,9.92-.2l-1.83-.05c2.08-.04,2.83-.3,4.71-.41-.56.35,2.89.38,3.75.64l.24-.02.33-.02.67-.04c.28-.02.56-.04.83-.06-.7.18.02.57-1.61.36-.02.12-.33.13-.62.13.43.02.93.16,1.6.15l.17-.28c.5.08-.04.26,1.24.23.76-.27-1.45-.45-.35-.63.02,0,.03,0,.05,0,0,0-.01,0-.02,0,.08-.01.18-.03.3-.04-.16,0-.28.01-.39.02-1.04-.18-2.27-.4-2.9-.57-1.16-.02-2.31-.04-3.47-.04l-.24-.16c1.47-.4,3.44.21,4.96-.05-.36-.11-1.37-.2-.33-.3l-1.51-.11.31-.38c-1.56.14-.33.44-2.14.57.29-.18-1.25-.17-1.86-.29-.05.02-.11.04-.16.06l-.27-.18c.09-.05.19-.1.34-.1-.37-.01-.61-.02-.77.01h-1.12c.09-.1.17-.19.14-.27.93-.19,1.54-.01,2.31-.05l-.54.18c1.16-.06.57-.37.71-.39l-2.83.1c-.02.11.05.27,0,.43h-.7c.19.03.42.06.65.1-.11.16-.39.3-1.12.33l1.8-.07c-.6,0-.62-.11-.52-.24.77.12,1.48.24.93.38-1.44.19-5.78,0-8.8-.07.71.16-.05.17-.8.17.15-.06.31-.11.47-.17-.88-.07-1.23-.3-2.78-.23-.69.26,1.26.11.57.38-.82-.14-.58.09-.55.23-.11,0-.22.01-.33.02-.08,0-.16,0-.23.01-.22-.03-.39-.07-.45-.13l-.88.18c-.18,0-.36.01-.53.02-.55.01-1.04.01-1.43,0l.2-.2c-.28.04-.41.09-.25.19-.5-.03-.79-.09-.69-.21l-1.59.21c-.76-.04-.44-.37,2.17-.6-2.3-.06-4.16.28-6.24.43l-.45-.26-.54.03s.09-.02.12-.04c-.91-.04-1.04-.08-1.41-.16.64-.12,1.16-.26,1.67-.32.65.04.65.13.49.22.35-.07.94-.08,1.61-.08.03,0,.07.01.12.02l.22-.02c1.54.02,3.34.09,3.7-.18,1.25.08,4.13-.12,4.57.13.05-.32,2.58-.01,3.79-.23-.54-.11-.32-.2.07-.27-.05.1-.08.19-.21.21l2.23-.27-.49-.15c-.3-.05-.51-.06-.7-.07-.1-.1.13-.21.03-.3.44-.02.81-.07.39-.25h2.69s-.03-.36-.03-.36c.35.03.45.08.04.2l2.17-.18c-1.25.32,3.04.12,1.78.44,1.17.04,2.42,0,3.76-.03.67-.01,1.36-.01,2.07,0,.36.02.73.03,1.1.05.47.03.94.06,1.42.1.07,0,.12,0,.18,0l-1.95.15c.16.04.26.07.34.11-.07,0-.12,0-.19,0h.19c.4.21-.42.34.19.53.31,0,.67-.09,1.01-.15,0,0,0,0,0,0,0,0,0,0,0,0,.35-.06.68-.08.92.05l-.08-.29c.23.07.5.13.79.18.04.02.09.05.2.07.06,0,.12-.01.18-.02.14.02.27.04.42.06.58.06,1.18.08,1.76.09,1.17.01,2.29-.05,3.21-.06l1.31-.29c2.25-.07,4.68.16,6.43-.29h3.38s.6-.38.6-.38c.09,0,.19,0,.29,0,2.24.05,4.5.22,7.69.44,1.96.17,3.05.14,4.19.13.7-.01,1.43-.01,2.45.02-.03.09-.09.18-.83.15.2.06.57.22,1.36.06.01-.08.08-.13.18-.18.52.02,1.1.05,1.78.09.83.11-.64.25-.05.19.98.13,1.81.06,2.61-.03l.59-.06c.18-.02.35-.03.52-.04.35-.02.71-.01,1.1.04l1.07-.29c.99.16,2.81-.13,4.53-.23-.76.19-1.02.23-.79.38l1.5-.25h-1.23c1.3-.45,3.45-.18,5.79-.3l-.02.14-.65-.08c.16.06.39.09.65.11l-.02.16,1.51-.1c.4.02.72.07.84.2.29.08,0,.19-.02.28l-.98-.14h0s.99.14.99.14c-.01.06.09.12.6.15l.54-.18c.83.15,1.71-.13,2.35-.2h-1.54s.21.1.21.1l-.92.07h0s-.99-.15-.99-.15c-.2-.17.61-.35.91-.49.26.02.53.04.79.06l-.28.04.42-.03c1.47.1,2.84.22,3.27.58l-1.06-.02c.73.07,1.45.15,2.14.24l2.1.23c-.28.12-2.47-.22-3.23.08.51-.12,2.12.12,3.14,0l.23.19-.09-.28.55.06h-.28c3.47.38,8.13.15,10.59.46.35-.08,1.48-.21-.44-.25,1.63-.16,4.21-.09,5.75.03-.5-.13.3-.22-1.48-.38,1.55,0,2.34-.04,2.81.22.48.2,3.6-.1,5.4-.23h-2.8s.81-.22.81-.22c1.04-.08,3.57-.12,3.53.07l-.26.04c1.79-.07,6.31-.37,6.03-.13,2.46,0,.3-.36,2.03-.37-.95-.23-.94-.23-2.92-.25,1.77-.2,2.82-.61,2.36-.86l-1.92.17.85-.17-1.58-.09c.26.19-.41.24-.97.31l.53.18,1.12-.23,1.93.08c-.28.23-1.98.05-3,.14l.95.3c-2.81.42-4.3.39-7.86.45.01-.07.28-.17.03-.19l2.21-.12s.06.05.17.06c0-.03-.02-.05-.05-.07l1.99-.11c-.54-.03-1.28-.04-2.11-.02,0-.07-.12-.12-.84-.09,0,0-.61.02-1.41.05-.39,0-.78.01-1.16.01.16-.04.32-.07.5-.11-.53.14-.97-.24-2.73-.38-.78.1-1.05.2-.81.29l-1.75-.21-.56.19c-4.08-.14-3.95.34-7.51-.06,2.93.83-3.48.09-5.7.23.63.08-.33.3-.58.31-2.64-.23-.13-.42-2.23-.63-.27,0-.56-.01-.86-.02-.24,0-.5-.02-.77-.03-.54-.03-1.11-.06-1.68-.08-.52-.02-1.04-.05-1.55-.08.31-.08.59-.16.82-.26-.43.1-1.17.1-1.73.19-.53-.02-.4-.16-.25-.24-.14.05-.3.08-.49.11.15-.12-.19-.26.36-.35-.02.01-.04.02-.07.03.39,0,.6-.04.69-.08.09,0,.18,0,.29-.01.66.11-.03.19-.27.22,1.58.02,2.5-.13,3.52-.27.25-.03.51-.05.78-.07.27-.02.54-.03.94-.03.75,0,1.62.06,2.71.18.44.04.88.05,1.32.08-.07.01-.13.03-.18.06.88-.02,1.71.34,1.99.15.51,0,.8-.04.98-.11,5.02.07,10.05-.34,13.82-.46.06-.32,4.07-.19,2.86-.46l1.73.19c-.52.07-.54.14-1.28.12,1.67.51,3.01,0,4.68.45l-.2-.35,3.75-.12-1.81.46c3.51-.08,6.1.34,10.11.08,0,.07.23.16-.28.23l2.51-.17-1.47-.1c3.8-.42,9.96-.18,12.28-.63l-1.44-.3,2.01-.16v.13c.87.06,1.66-.07,2.4-.15-1.99.12-.45-.28-3.37-.08-.05-.05.03-.09.16-.12-1.74.15-3.35.32-3.96.6-3.24.02.28-.17-1.19-.33-3.52.26-2.19-.25-5.7,0-.02,0-.03-.02-.03-.03-.6.07-1.2.12-1.71.02l-.56.4c-1.54.22-3.23.15-5.46.17l.08-.45c.48-.01.78,0,.96.02-.16-.07-.02-.14.79-.22,1.25-.06,1.18.27,2.46.02l-.73-.09c-3.12-.49,3.22-.03,3.8-.42,0,.04.06.06.04.08,1.1-.1,1.94-.42,1.23-.26-5.08.6-6.11-.44-11.41.1,1.68.32-2.77.23-3.3.43.77-.05,1.74.06,3.21.15-2.78.29-4.27.33-7.28.32l.29-.23c.78-.18,2.69.3,3.01-.13-1.72-.24-3.1.12-4.32.14l.79.06c-1.81.32-4.31.17-6.1.21-.07-.02-.08-.04-.06-.05-.79.12-1.54.21-2.25.15-.22-.09.55-.13.82-.22l-2.32.09.02-.07-2.12.24-.21-.16c-1.32.14,1.16.57-1.91.44-.49-.04-1.56-.08-2.81-.12.06-.03.13-.06.23-.08-.53-.1-.87-.04-1.18.04-1.78-.07-3.69-.18-4.73-.36l-.09.25c-.5-.08-1.07-.13-1.65-.14-.57-.01-1.02.02-1.5.06-.93.1-1.72.29-1.98.44-.64,0-1.3-.01-1.94-.03,0,0,0,0-.01,0,0,0-.01,0-.02,0-1.83-.04-3.53-.1-4.26.1l1.88-.03c-.02.13-1.68.18-1.22.31,1.56-.02,1.13.21,1.48.32-.92.01-1.95-.02-2.72,0l-.11-.1c-2.15.13.96.4.32.49.28-.04.61-.06.95-.08-.27.1-.75.18-2.41.13.74,0,1.1.11.91.2-.03.01-.07.01-.11.03h.02c-.15.04-.42.08-.86.09.01-.13-1.18-.13-.91-.29-3.41.18-3.67.23-6.47.42-.5-.11-1.5-.21-.96-.42-.41.13-1.42.24-2.53.28-.84.03-1.65,0-2.19-.06.04-.03.1-.05.12-.09-.17.01-.32.02-.45.03-.07-.02-.14-.03-.19-.05.57,0,1.42.05,2.02-.03-.74.06-1.94-.03-3.08-.12-.73-.06-1.42-.11-1.99-.1-.3-.12-.64-.25-1.14-.29.11-.02.2-.06.22-.13l-2.42-.02c.76.06,1.48.18,1.94.18l-1.01.26c-.22-.14-.08-.23.17-.28l-2.41.03s.03.05.06.08c-3.49-.13.81.46-3.21.29-1.16-.1-.61-.33-.6-.39h.72c-.5-.05-.85-.1-1.11-.14l.32-.02-.1-.03-.32.03c-.79-.15-.53-.26-.93-.45.14,0,.28,0,.44-.01.12.01.21.03.2.06l.02-.07c.74-.05,1.53-.15,1.79-.3l-.25.19c.63-.04,1.15-.1,1.48.08l-1.16.23c1.28-.03.97-.13,1.18-.22.02.01.05.02.07.03l.64-.4c.64.25,1.07.14,1.61-.02l-.03.09h0l.03-.1c.56-.17,1.24-.39,2.43-.36,0-.06-2.1.07-1.82-.12l.13-.03c-1.37-.03-2.47.16-3.4.13-.17-.11-.32-.19.05-.19-.46-.29-1.43-.45-2.54-.55.07,0,.13-.02.2-.02.01-.2,2.06-.27,1.21-.68.86.41.8,0,1.49.08l-1.45.47,1.72.02c.38-.21.21-.54.93-.71-.38.01-.75.01-1.1,0l.26-.02-.24-.05-.68.04c-1.27-.06-2.35-.17-3.14.05l-.49-.49c1.26.12,2.14-.11,3.08-.28h.69s.29.24.29.24c.13-.03.04-.13.15-.23h.4c-.08-.02-.19-.03-.31-.06.13-.06.39-.12.9-.15l.31.23,1.06-.53.45.21-.4-.47c-1.44-.13-3.2-.02-4.08-.43.16-.29.98-.29,1.14-.58.53.3,2.2.37,1.91.68,1.23-.14,2.04.12,3.17.07.31.1.81.17,1.05.26h-.18c.1.01.18.02.26.04.06.04.08.08.04.14.14-.03.28-.04.41-.06.47.07.54.03,1.31-.04l-.58-.02c.52-.01,1.04.01,1.58.05.17.06.38.12.58.18-2.22.01-4.08.02-5.44.03,1.96.06,3.91.09,5.84.1.19.07.3.13.28.18.3-.07.66-.13,1.13-.17.46,0,.93,0,1.39,0v.03c.07-.01.14-.02.22-.03,2.85,0,5.65-.04,8.38-.09l.05.02.07-.03c1.08-.02,2.15-.05,3.21-.07-.5.06-.97.11-1.37.13.14-.02.27-.04.37-.06l-1.15.03s-.06,0-.09-.01c.01,0,.02.01.03.02h-.31c.13.06.27.08.41.08.05.05.11.1.57.11l-1.24.2c2.2-.04,4.44-.32,6.6-.21-.51.09,1.05.16,2.25.27,1.1.11,1.9.21.67.29.43-.03.86-.06,1.28-.07.18.29,2.03.22,2.5.51-2.17-.12-3.25-.3-6.4-.17.05.02.1.02.16.04-.07,0-.12,0-.19,0-.76,0-1.58,0-2.44.01-1.71.03-3.58.1-5.49.18-2.05.08-3.98.16-5.71.23-1.73.05-3.27.1-4.51.14-2.33.08-3.65.15-3.14.2,1.88-.05,5.14-.13,8.97-.22,1.06-.04,2.11-.07,3.15-.11l-.15.03c.66.29,1.67-.14,1.9.18,1.25.08,2.56-.42,3.03-.09-.18-.4-1.15-.03-1.59-.24,1.74-.06,3.39-.1,4.84-.11.77,0,1.52,0,2.17.02.29,0,.58.02.87.02.31.02.61.03.9.05.42.02.89.05,1.37.09-.51.06-.99.15-1.42.3.5.07-.02.19.74.14l-.15.22c1.47,0,2.8-.24,3.75-.45,0,0,.02,0,.03,0,1.99.15,3.89.24,5.04.25,1.55.13,3.16.21,3.94-.08,2.22.34-1.9.38-2.24.64,3.14-.09,6.48-.15,9.52-.16l-.48-.13c2.06-.2,4.02.23,6.36-.29,3.27-.09.96.24,2.46.28.28-.23-.68-.4,1.1-.6,1.43.35,4.97.01,6.93.16l2.37-.29c.1.04.35.08.28.18.75-.47.82.21,1.88-.17-.2-.51-1.16.21-1.99-.12-.14.03-.2.05-.22.07l-1.76-.19,1-.02c-1.65-.51-2.03.3-4.46-.03l-.14-.35c.7,0,1.4,0,2.11,0-.19.04-.27.09-.93.08.74.08,1.06.09,1.2.07l1.77-.02c-.13,0-.17-.02-.19-.04.4.04.86.07,1.16.1.14-.07.46-.13.88-.17.91,0,1.84,0,2.77,0-.05.05-.09.11-.24.1.15.07.17.2.01.3l.63-.23.66.13.43-.29c.66,0,1.32,0,1.99,0,7.8.03,15.86.06,22.66.02-2.41-.02-2.45-.08-1.19-.14.74-.04,1.95-.08,3.37-.13-.24.14-1.58.3-1.84.29.63.11,4.65.13,5.68-.14-1.48-.04-4.25.23-3.71-.16.16,0,.32-.01.48-.02.65,0,.43.09,1.26.08l-.27-.11c.54-.02,1.09-.03,1.65-.05,2.73-.07,5.73-.15,8.04-.21,2.29-.05,3.87-.06,3.8-.03,1.3-.08,5.64-.29,6.71-.41.68-.07.02-.14-3.82-.08-.02-.03-.11-.06-.25-.07-.05.02-.05.05,0,.07-2.04.03-4.91.1-8.91.21,16.14-.26.09.18-7.48.46l-.15-.06c-.92.02-2.05,0-2.62.07-1.31,0-2.95.01-4.54.02,1.81-.26,2.54.08,4.7-.17-1.15-.13-3.63-.06-4.79.17-3.37,0-6.34-.04-4.98-.09-.21,0-.45,0-.72,0,.09-.06.31-.12,1.31-.15-.81.37,2.49-.11,3.72.09.21-.24-2.14-.32-2.88-.36l-2.07.2c.53-.2-1.48-.04-.7-.28-2.89.17-4.39.21-8.29.47-.13,0-.27,0-.41,0,.14-.09.02-.16.46-.23l-2.24.1c.37-.06.68-.15,1-.26.24-.08.45-.15.65-.23.49-.05,1.1-.08,1.9-.05l-1.22-.03c.09-.03.15-.07.2-.12,8.27.03,14.79.11,18.64-.25-6.5.06-12.89-.01-19.17-.11.05-.02.11-.02.16-.04l-3.21-.04.83-.12,3.87-.08c3.16,0,5.55,0,7.41-.01.4.04.76.08,1.06.14l1.38-.13c1.95.01,3.2.04,4.4.07,1.58.05,3.16.08,6.12.07,2.91-.02,7.27-.11,14.44-.29,7.16-.21,14.67-.3,20.11-.28,2.5,0,4.56.02,5.99.03-1.54.21-3.53.49-3.07.68l1.14-.07c1.06.51-1.9.14-2.11.37l.72.19,1.92-.27q.91.28,1.24.54c-.33-.32,3.05-.23,4.39-.34.78-.2-1.12-.12-.71-.31,2.29-.22,1.66.27,2.4.39,1.76-.44,3.97-.08,5-.59l1.49.17c1.04.03,1.19-.05,1.39-.12.1-.04.21-.08.45-.1.12-.01.28-.02.47-.03.17,0,.38,0,.63,0-.18.16.43.1.29.24-.72.01-1.08.16-1.65.22.5-.01,2.1.11,2.49-.18-.2-.02-.38-.03-.54-.03.35,0,.83,0,1.38.01.43.08.97.1,1.35.24-.09-.35,2.42.16,2.46-.35l-.86.04.26-.19c-.07.02-.14.02-.2.03.01,0,.03,0,.05-.01-.27-.03-.58-.05-.84-.05-.13-.04-.25-.08-.34-.1.09-.03.25-.05.41-.08,5.29,0,10.16-.1,14.95-.23-3.65.09-5.71.11-6.57.1,0-.02-.02-.03-.05-.05.63-.03,1.9-.07,3.48-.13,4.77-.17,12.06-.5,13.38-.62l2.46-.03c.16,0,.33,0,.5,0h.91c.28.13.13.37-.73.33.75.02,1.69.32,3.67.35.65-.05,1.2-.2,1.45-.27-.99.23-1.7-.08-3.4.05,1.56-.18,1.21-.34,2.11-.51.59-.03,1.21-.05,1.85-.08.23.09-1.65.13-.68.24.73-.28,3.4-.27,4.49-.39.05,0,.11,0,.16,0-.19.08.14.19-1.14.21l1.44.24c1.49-.08-.23-.09.29-.23.77-.1,2.05-.33,3-.14-.03.13.43.32-1.04.26l1.67.29c-1.27.15-2.56.45-3.53.39l-.21-.16c-1.49.02-1.04.27-2.02.28l1.98-.09c1.7.02,1.43.25.66.41-1.68-.21-1.99.15-2.75.32l-3.22-.04c-3.76.23-3.06.51-6.09.69-.22-.09.52-.14,1.04-.21-2.75.15-5.45-.03-8.25.37l.26-.1c-.52.14-2.78.34-3.51.19-2.83.6,6.22-.14,3.41.45-.24-.09-.52.07-.76.05,0,.07-.26.1.22.16.29-.16,2.51-.11,1.05-.28,1.49-.03,2.72.05,3.2.17-.25.03-.76.04-1.02.08l1.98.03-.72-.15c.48.12,4.79-.38,4.72.01l.05-.32c.55.06,1.27.02,2.02-.04-.18.01-.38.03-.59.05,1.84.87,5.68-.25,8.33.15.58-.09.71-.16.74-.23.36,0,.7,0,1.02,0-.08.06-.23.14-.33.21-.45.01-.92.02-1.11.05.41-.02.75-.02,1.08-.02-.09.08-.08.16.24.21.35.42,2.7-.12,3.84-.03-.03,0-.07-.02-.1-.03.24-.01.24-.05.1-.08l-.18.05s-.05-.03-.04-.05c.06,0,.11,0,.17,0,.02,0,.02,0,.04,0l.23-.06c.12,0,.25,0,.37-.01.03-.02.07-.04.12-.06.23,0,.46,0,.7,0-.04,0-.08.01-.12.02.14,0,.29-.02.43-.03.79-.02,1.52-.04,1.9.01l-.13-.06c.34,0,.7.02,1.12.05-.45-.06-.42-.11-.26-.16.37,0,.78.03,1.13.03-.19.02-.31.05-.23.09.17-.03.31-.05.44-.07l.18.21c.61-.09.39-.16-.04-.23.35-.06.52-.1.63-.17l.47.1c2.17.28,1.79-.18,4.02-.09-1.17-.32-3.74-.06-4.14-.39.26-.09,1.24,0,1.51-.09-.48-.08-1.46-.16-1.19-.25l1.48.1c-.7-.09-1.52-.15-2.34-.2.43-.2-1.42-.24-1.4-.45-.48.12-1.32.17-2.19.24-.15-.01-.3-.02-.43-.04,3.97,0,.41-.61,3.65-.7.05.02.38.05.82.08-.12.03-.24.07-.43.12l-.13-.03-.39.17c.75.12,1.9,0,2.8-.04l-.43-.14c.33.01.66.02.98.02l-.03.05s.04-.04.05-.05c.95,0,1.7-.05,1.53-.21h-1.44s0-.02,0-.02l-.06.02-3.75-.02c.71-.2,2.28-.37,3.93-.54l-.85.17c.99.31,2.42-.07,2.69-.33l-1.93.32.13-.16c.84-.08,1.69-.16,2.46-.24,1.75.01,2.74.1,4.72.2l.3-.22c3.02-.07-.06.26,2.18.33.58-.36,5.83-.29,6.19-.84-.22.16.82.1,1.79.05-.2-.09.61-.39.24-.26-1.49,0-1.55.34-3.5.07-.22-.1.05-.19,1.06-.25l-1.75.03,1.35-.48c-.99,0-1.8.28-2.5.05l.51-.06c-1.73-.05-2.69-.19-3.96-.12l.17.36c-1.85-.07-2.04.03-2.08.15-1.72-.1-.97-.37-1.71-.48l-1.16.31h.76c.11.08-.15.28-.78.19.32.02.77.04,1.23.06-.72.2-3,.14-4.26.13l.06-.02c-.06,0-.12.01-.17.02-.45,0-.73,0-.73.04,0,0,0,0,0,0l.02-.06c-.39-.03-.74-.05-1.07-.07l.64-.35-1.41.18c.11.16.37.15.63.02l.1.14c-1.81-.1-2.83-.05-3.69.05-.39,0-.78,0-1.17,0h-1.89s-1.87.04-1.87.04l-.75.02c-.36-.03-.73-.06-1.02-.1l-.3.13-1.98.05c-.48,0-.98,0-1.47,0,0,0-.02-.02-.03-.02-.03,0-.07.02-.1.02-1.47,0-2.94,0-4.43,0l.05-.03-.44.04c-.52,0-1.05.01-1.58.02l.25-.04-1.82-.02.49.08c-.68,0-1.34.01-2.03.02-2.48.18-7.65.57-.73.41-7.8.36-13.99.64-19.44.76-5.45.13-10.15.15-15.17.04-1.26-.03-2.53-.06-3.85-.11-1.23-.05-2.48-.1-3.79-.15-2.37-.1-4.94-.17-7.83-.22-5.79-.1-12.85-.06-22.4.19,8.36-.02,4.94.08-2.09.26-1.49-.03-7.37.05.41-.21l-19.78.54-.31-.22c.28-.01.56-.05.84-.11.51,0,2.53-.42,3.2-.64.38.07.78.14,1.13.17-.32.01-.56.03-.67.06-.15,0-.31,0-.48.01-.3.02-.62.07-.83.15.06-.05.61-.02,1,0,.35,0,.63,0,.57-.11,2.49-.07.42.35,1.61.36l.31-.36c1-.02,1.49.04,1.98.09-.01.05.11.15-.15.21.8-.14.7-.37,2.65-.32-.74-.08-1.96-.16-1.94-.29-.68.18-2.6.16-3.79.19-.43-.12.24-.23.75-.32l.89.23c.72-.17-.57-.25-.81-.46-.7.25-3.08-.07-3.35.11-.19-.05-.46-.09-1.01-.08l.11.22c-.68-.06-1.63-.1-2.37-.05.35-.11.97-.22,1.19-.35.39.04.66.08.51.14,1.59-.36,3.54-.21,4.96-.15-.09.06-.09.12-.04.17.11-.04.18-.09.19-.16.53.02.97.02,1.27-.02,0,.01,0,.02-.01.03,1.48,0,3.36-.25,4.25-.09-.76.19,1.08.2,1.61.29-.26-.71,1.83.13,2.13-.61l-4.82.12c.18-.34-1.44-.1-2.41-.1.78-.13.88-.28.93-.43,1.81-.02,3.9-.04,6.45-.07-.34-.02.01-.04.8-.08.02.05.26.1,1.23.16,2.99,0,2.7.11,4.92.22l-.67.06c.6.03.47.26,1.3.27-1.92.06-2.08.4-3.26.63-.73.19-2.14.08-3.02.08.51-.09,1.04-.15,1.68-.06-.45-.33-1.12,0-1.95-.29.19.45-1.73.04-2.38.32.23.07.59.17.7.27.39.03.76-.02,1.12-.08l.09.13-2.05.09c2.46.15,6.01-.22,8.74-.27l-1.95-.14,3.29-.51-.02.13,2.28-.36-1.73-.04c1-.03,2.04-.32,3.01-.16.53-.27-.2-.41-2.13-.67l-.06.32c-.99.03-.58.53-2.76.31,2.21-.18,1.15-.43.02-.58.91-.02,1.84-.04,2.74-.06,5.04-.11,9.2-.16,4.79-.26l-4.8.14c.85-.24-1.23-.41.66-.59.16-.03.3-.04.45-.05.05.03.06.07-.04.12.79,0,1.15-.08,1.46-.16.89.05,1.61.16,2.36.01.65,0,1.31-.03,1.97-.06-.75.11-1.45.22-1.22.31l3.04-.12c-.22-.16-2.49.1-1.76-.19.43-.02.85-.04,1.26-.06-.28-.1-.43-.18-.48-.25.33,0,.64,0,.99,0,.72-.01,1.45-.02,2.17-.03.22.02.47.02.77-.01.07,0,.13,0,.2,0l-.15.08c.23,0,.25-.05.17-.08,2.11-.03,4.22-.04,6.31-.04-1.82-.04-3.21-.07-4.33-.1-.02-.01-.05-.02-.09-.03l.04.03c-.35,0-.67-.02-.97-.03.39-.02.75-.05.94,0l-.1-.08c.15-.16.78-.06,1.16-.09l.1.23c.92-.28-1.81-.36-.12-.54.02,0,.04,0,.07,0l.6.22c1.13.23.92-.22,2.07-.19-.05-.02-.11-.04-.17-.05,1.35-.02,2.17-.05,2.3-.11-1.36-.02-2.74-.02-4.11-.03-.07-.02-.14-.05-.17-.1.13-.09.64-.03.78-.12-.1-.03-.23-.05-.36-.08.33,0,.69,0,1.07-.01l.05.22.78-.13-.3-.1c1.74-.03,3.97-.07,6.97-.15l-.26.04c.39.09-.59.21-1.28.35-.19-.02-.36-.04-.48-.08-.53.07-.47.18-.12.27-.01.02,0,.05.04.07h.42c.62.09,1.52.11,2.25-.05.05-.03.07-.05.09-.07.22.04.34.12.3.26l.27-.26c-.39.03-.53,0-.57-.04,0,0,0,0,0,0-.08-.09.32-.27-.56-.16.29-.03-.13-.22-.03-.33.43-.01.86-.02,1.32-.03-.43,0-.86.01-1.29.02,0,0,0,0,0,0h0c-2.44.04-4.84.08-7.17.13l-.46-.15.03.16c-.39,0-.77.02-1.15.03-.14-.04-.24-.08-.17-.13l.76.07c-.52-.1-1.16-.14-1.77-.19,1.59-.04,3.24-.08,4.9-.13,2.16-.05,4.33-.1,6.41-.15-.28.04-.91.18-.2.08,1.12-.09,2.14.11,3.17.16-.62.1-1.22.15-1.28-.05l-.28.39c.5.05-.01.19.36.28,1.54-.29,2.03-.18,3.8-.28-.76.02-1.74-.34-2.9-.15.06-.09.27-.14.51-.18.24,0,.48.02.73,0l-.05-.11c.09-.02.17-.05.22-.09-.07.01-.15.03-.24.04l-.07-.16c.09,0,.17,0,.26,0,.39.04.77.08,1.16.14.5.05.89.12,1.52.16,1.17.09,2.47.14,4.11.03.78-.24,4.49-.15,4.29-.43-1.77.19-3.63.13-5.45.07-.29,0-.58-.02-.88-.03,2.78-.15,5.51-.32,8.16-.52.93-.02,1.85-.04,2.77-.06-.8.07-1.51.14-2.01.19,1.54-.09,3.04-.18,4.54-.26,1.46-.05,2.9-.1,4.34-.15.57.07,1.13.12,1.52.08.01-.07.03-.11.05-.14,1-.04,1.99-.08,2.97-.12-.04.03-.1.07-.2.12.13-.02.28-.07.41-.13.72-.03,1.43-.06,2.14-.1.16.03.34.04.53.05-.31.02-.61.04-.9.06-1.28.08-2.28.19-2.7.25-.28,0-.5-.01-.4-.13-.93,0-.22.15-.23.22h.01s-.02.07-.17.07c.31.03.76.07.88-.04-.13-.02-.22-.03-.3-.05h.09c.17.02.61.03,1.41.02.68,0,1.62-.02,2.87-.03.96,0,2.1-.01,3.44-.02.03,0,.06.01.09.02-.19,0-.38,0-.56.01.19,0,.38,0,.57-.01.67.15-1.12.17-2.15.26l.42-.18c-.47.02-.72.16-1.41.17.28.08.03.29-.42.4,1.35-.07.06-.32,2.15-.25-.64.28.54.17.69.4,2.3-.02,3.73-.37,5.34-.67,1.35-.03-.73.24.85.23.45-.04,1.1-.07,2.07-.06-.02-.09-.13-.15-.3-.19,1.4.06,3.15-.06,4.46-.07v.02c-.29.07-.19.13-.08.18.11-.07.23-.12.36-.17,1.92-.15,3.93.36,4.88-.07-.88,0-1.25-.12-.94-.25.41.04.88.06,1.34.04.29.05.56.12,1.1.17-.02-.02,0-.04.03-.05.53-.03.69.02,1.03-.13l.32.13c.33-.07,1.31-.18,1.38-.26.22.08,1.06.06.95.21-.14.16-1.27.01-1.29.27.74.19.52-.26,1.27-.08v.06s.01-.19.01-.19c.37.09,1.14-.11,1.37.14l.28-.26c.11.22,1.89,0,1.23.37l1.27-.08c.08.61-2.4,0-3.07.42-.36-.28-.75-.12-1.36-.27l.24.06c-.02.26-1.02.2-1.54.27l.25.06s0,0,0,0c-.25,0-.49,0-.74,0,.75-.22-1.53-.34.15-.42h-1.01c.17.15-.5.27-.71.43-.45,0-.89,0-1.36.01-.29,0-.59.01-.88.01,0,0,0,0,0,0,0,0-.02,0-.02,0-3.53.05-7.19.17-11.06.32,1.03.05,3.61,0,7.07-.07.66-.01,1.36-.02,2.08-.03-.94.15-1.9.35-2.81.54-2.39-.22-3.69.1-5.46.03l.26-.06c-1.02.06-2.07.38-2.82.18l.26-.06c-2.42-.18-.31.58-2.02.46l.64.23c-.81-.01-.84.18-.85.31-.38-.1-1.01.07-1.06-.07-.32.07-1.13.06-2.01.11-.42-.06-.97-.09-1.92,0-.33-.19.16-.16.71-.23.72.06-.03-.07.99-.08-.22-.19-.63.03-1.01.06l-.83-.04c-.89-.31,2.89-.17,1.99-.41-.95.01-2.28-.05-2.24-.24,1.87.23,2.36-.4,4.63-.11.19-.03,1.4-.33-.14-.35l-.23.22c-1.57.11-1.91-.1-3.65.03l.02-.07c-2.65-.11-3.95-.23-5.15-.03.83-.04,1.62.49,2.49.1l.69.34c-1.35.13-2.52.42-4.33.18-.04.15,1.15.15,2.03.24-.8-.01-2.47.11-3.62-.05.03-.02.08-.05.15-.08.28.01.67.06.89.05-.3-.06-.65-.06-.78-.09.02,0,.03-.01.04-.02h-.07s-.01-.05.04-.08c3.34-.14,4.67-.25,4.31-.28-.49-.05-3.99.03-10.11.12l1.76.31c.77-.03,1.48-.05,2.13-.08l.03.12s-.08.03-.14.06c.06.03.1.06.14.09-1.07-.02-2.29-.09-3.55-.11-1.28-.02-2.75.02-4.11.19l.02-.19c-.15.35-.86.04-1.25.14l-.02.19c1.44.01,3.76.04,5.16.25-.82.03-1.5.08-1.72.21-1.24.08-1.39-.08-1.71-.22.32.13-1.1.37-1.94.27l-.15-.1-2.13.64c.34-.07.53-.16,1.03-.13.47.29-1.24.41-1.89.36,1.47.15,1.34-.07,2.54-.16-.03.19-.74.38-1.26.48l1.68.07c1.91-.08,2.15-.63,4.06-.5l-.84-.24c2.32-.18.98.34,2.96.21l-.14.1c-.87-.08-1.28.06-1.99.18,1.12-.1,1.53-.03,2.31-.04.48-.06,1.07.11,1.26.07-1.25-.07.73-.3-.64-.34.2.2-.47.12-.81.14,0,0-.01,0-.02,0l1.69-.43c.48.3,1.64-.06,2.55-.07-.2.09.15.17.14.23-.72-.02-1.09.04-1.46.09l1.03.28c.33,0,.63,0,.91-.01-.69.1-1.56.15-2.04.22-1.68.12-3.4.24-5.16.37-.84.06-1.71.12-2.56.18-.09-.02-.19-.04-.3-.07l-.19.1c-2.31.16-4.66.32-7.1.45-3.46.19-7.43.27-10.44.34-.37.04-.16.07.51.08.33,0,.78,0,1.33,0,.57,0,1.25,0,2.02-.01,3.14-.02,7.55-.19,12.21-.47.68.34,2.05-.04,3.14-.2.5-.03,1-.07,1.5-.1-.37.14-1.21.34-.75.52.04-.31,1.35-.32,1.6-.57,2.55-.17,5.07-.33,7.48-.47.46.11.75.24,1.12.37.67.09.69-.08.94-.11l-.41-.05c.67-.01.59-.16.39-.32.24-.01.48-.02.71-.03l-.02.1.43-.11s.01,0,.02,0c.12,0,.23,0,.34-.01.16.12-.17.3-.83.26l1.49.29c-.55-.52,1.74-.18,2.88-.45-.15.03-.16.09-.03.13.71-.19-.33-.37,1.15-.33.22.27,1.35.05.88.39,1.77.03-.79-.22.47-.34.41-.02.39.11.38.17.43-.09.84-.04,1.4-.09,0,.05.06.11-.08.16.36-.05.7-.08,1.04-.05v.07c.44-.05.79-.1,1.19-.15-.13-.07-.33-.14-.46-.21.96,0,1.87,0,2.7-.01,2.54-.08,5.51-.17,8.76-.33.84-.05,1.7-.1,2.55-.14,1.06-.07,2.11-.15,3.08-.25,1.96-.19,3.72-.43,5.26-.64.27-.04.52-.07.77-.11h0s0,0,0,0c2.66-.37,4.58-.63,5.93-.73,1.34-.09,2.62-.17,3.8-.25.66-.05,1.28-.1,1.88-.14.38.01.76.02,1.14.03,2.58.06,5.17.07,7.65.02,2.22-.05,4.29-.1,6.12-.14-2.15.05-4.25.09-6.32.13-2.29.04-4.5.01-6.62-.04-.5-.01-.98-.03-1.47-.05.34-.03.69-.05,1-.07-.4.03-.82.04-1.22.07-3.6-.12-6.97-.29-10.18-.42-1.79-.08-3.48-.13-5.17-.15,1.09-.31,3.77-.22,5.76-.38-.12.03.61.1.72.22l-1.58.06.16.22,1.42-.28s.02.02.02.03c1.65-.12,1.93-.51,3.33-.63-.48-.31-1.01.08-1.4.12.13-.04.41-.36,1.16-.37-.62-.21-1.1-.53-2.26-.22-2.25-.28-3.69.35-5.82.15l-.37-.22c-.03.39-1.88-.07-2.54.29l-.11-.16c-1.02.06-1.89.08-2.98.16,0-.02.03-.05.03-.06-.29.03-.58.06-.86.08,0-.06,0-.1.04-.14.06,0,.09-.01.11-.02h.19c1.65-.12,3.18-.27,4.6-.42.37,0,.77,0,1.2-.01,0,.05.05.12.09.22.52-.1.71-.16.83-.22,2.42.01,5.5.1,8.82.2-.14.08-.46.15-.08.2l1.53-.09s.06-.05.08-.07c1.49.04,3.01.08,4.51.1l.85.18.52-.12-.65-.05c1.87.02,3.69.02,5.34-.02.85-.03,1.64-.05,2.37-.08.67-.03,1.28-.06,1.81-.08,1.07-.05,1.83-.1,2.2-.14-4.73.15-7.94.41-15.41.11l.37-.11c-.06.02-1.06.01-2.55-.02.06-.01.12-.02.18-.03-.59,0-.75-.12-1.11,0-.38,0-.78-.02-1.2-.03-2.23-.05-4.9-.12-7.35-.13.06-.04.12-.08.23-.14.29-.03.59-.07.87-.1,1.01-.12,1.92-.22,2.78-.31,0,0,0,0,.01,0,0,0,0,0,0,0,.81-.08,1.55-.15,2.24-.19,1.34,0,2.95.03,3.86-.01.47-.08.24-.12-.13-.15.56-.02,1.1-.04,1.64-.06.27.11.32.25.81.32,2.44-.41,5.49,0,6.91-.48l1.25.12c-.3.04-.54.07-.73.09.22-.01.55-.04.98-.07l.53.05c2.85.09.85-.29,4.22-.21-.03.01-.03.02-.04.04-.38.03-.76.06-1.16.1-4.33.4.36.11,1.7.06.02.02.01.04-.04.06,1.31-.04,6.22.18,7.59-.27-1.02-.05-2.32-.07-2.35.12-1.04-.06-.99-.32.07-.38,2.61-.09,4.23-.43,6.76-.14.29-.16.55-.2,1.86-.25-.02.06.24.09-.54.13l2.07-.02s.02.03.03.05c.68-.09,2.1-.21,2.94-.2.11-.09,1.36-.19,1.55-.25,1.28-.02,2.55-.04,3.75-.06,1.27-.06,4.38-.2,8.65-.39.95-.04,1.96-.09,3.01-.14l8.34.13c-5.53.14-2.26.09,3.23.01l-2.39.19.22-.16-1.37.13c1.4.34,3.43.08,3.99-.17,1.54-.02,3.23-.05,4.94-.07,8.74-.15,17-.58,11.11-.09-1.14-.03-2.97-.04-4.11-.02,1.94.24,3.96.03,4.94.05-.16-.01-.43-.02-.74-.03l3.59-.22c4.3.14,8.32.1,11.88.04-1.71.14-3.42.27-5.16.4-.27.03-.54.05-.82.08l-14.89.87.03-.02-2.07-.08c-1.58.02-2.08.19-2.31.36l-.68.04c.22,0,.42,0,.64-.01-.15.13-.18.26-.43.32,1.34-.03-.36-.06.81-.26.12.1.48.16.92.2-.05,0-.1,0-.16,0-3.53.19-4.38.24-6.68.51-2.11.24-4.73.6-7.81.93l-1.43.13-1.45.11c-.94.06-1.86.11-2.74.14-1.75.06-3.34.08-4.78.09-.95.01-1.93.02-2.91.03,2.42,0,5.67.07,9.74-.1.68-.03,1.42-.08,2.15-.13l2.02-.17,3.23-.33c2.03-.22,3.74-.41,5.18-.53.72-.06,1.39-.1,2-.13.92-.04,1.84-.08,2.76-.12,2.11-.08,4.17-.21,6.21-.33,3.89-.26,7.67-.55,11.27-.89,1.21-.05,2.42-.1,3.6-.15,4.99-.3,9.05-.55,12.67-.72.3-.02.58-.03.87-.04-.7.12-1.36.29-.36.41l6.68-.34c.51,0,.24.03.23.1.22.03,1.31-.24,1.22-.44.36,0,.72-.01,1.08-.02.64,0,1.28,0,1.91-.01.16,0,.32.01.47.02.99.07,1.99.14,3.02.21.77.06,1.55.1,2.35.15-1.7.03-3.6.07-5.78.11,4.4.1-6.54.28-17.28.48h0c-2.06-.08-4.69-.05-5.33.29.24.03,1.22.08.71.15l2.03-.16c-.28.16,2.01.03.21.22.81,0,1.55-.1,2.38-.22v.12c8.21-.18,16.67-.37,24.24-.54,1.9-.04,3.74-.09,5.5-.13.25,0,.48-.02.72-.03,1.61.04,3.27.06,5.02.06,1.03,0,2.1,0,3.18-.02-.16.01-.3.02-.46.03.23-.01.45-.02.67-.04,1.45-.02,2.95-.04,4.5-.07-.73.05-1.4.09-2.02.14-2,.15-3.38.3-4.31.4-1.88.21-1.98.3-2.01.37-1.35.09-2.89.21-4.52.33-2.29-.02-4.6-.06-6.86-.15-2.05-.07-4.3-.22-5.87-.29-1.71-.08-3.4-.11-5.01-.12-6.46,0-11.84.24-13.75.32,4.27-.11,9.16-.27,14.2-.22,1.26.01,2.53.05,3.8.1,1.34.07,2.71.15,4.08.22,2.47.14,4.97.21,7.48.27-2.14.14-4.35.27-6.36.32-3.57.1-6.28.16-6.73.1-.8.03-1.77.06-2.87.09-.83-.09-1.69-.22-1.63.05-1.12.03-2.36.06-3.69.1l.12-.05.19.04-.54-.24-.22.16c-1.97.07.25-.28-1.7-.28-2,.12-.63.34.73.41-1.81.04-3.76.09-5.85.14v.59c5.01-.14,10.27-.29,15.55-.44l3.96-.11c1.37-.04,2.73-.09,4.09-.13,2.42-.1,4.76-.27,7.04-.45-.04.09.9.11,2.48.03-.74-.03-.71-.09-.85-.16.44-.04.88-.07,1.31-.11,2.79,0,5.54-.03,8.25-.08-2.05.15-4.12.32-6.25.52-.94.09-1.9.18-2.86.27,2.83-.24,5.81-.51,8.81-.71.6-.04,1.19-.07,1.79-.11,1.63-.03,3.24-.07,4.8-.11,1.61-.04,3.26-.02,4.91.03-1.21.04-2.43.07-3.67.11-.61.02-1.22.04-1.84.06-.6.02-1.2.05-1.8.07-1.21.06-2.46.14-3.73.22-2.54.18-5.2.41-7.97.65-2.11.18-4.31.34-6.55.48l-.66-.13c-.93.13-.72.17-.26.19-.39.02-.76.05-1.15.07-.35.02-.71.03-1.07.04-.38-.03-.67-.08-.72-.18,1.16-.05,2.3-.12,3.42-.19,1.96-.14,3.84-.31,5.69-.48-.29.02-.6.05-.89.07-3.09.25-5.96.46-8.4.56-2.34.09-4.22.17-5.46.22,1.52-.04,3.01-.08,4.49-.13.38-.01.76-.03,1.13-.05-.15.12-.41.19-.74.24-.66.02-1.31.04-1.94.05l-4.22.09c-5.62.12-11.23.23-16.67.34v.17c.9-.03,2.58-.08,5.28-.17,7.23-.18,7.04-.05,6.91.02,1.36-.04,2.72-.08,4.08-.12-.5.08-.89.19-1.18.3-4.21.13-7.13.24-7.82.32,2.9-.1,5.02-.19,7.69-.27-.22.09-.35.18-.41.25l1.78-.04c-.05.04-.16.07-.28.1-1.92.05-4.76.1-9.01.16l8.71-.1c-.35.06-.66.1-.44.14.25-.04.62-.09.94-.14h.99c.11,0,.25-.01.39-.02l3.57-.04c-.35-.1,2.07-.23,6.12-.37.56-.02,1.22-.04,1.91-.06l-.37.05c.36-.01.72-.01.43-.06.99-.04,2.09-.08,3.2-.13.02,0,.03,0,.05,0,.09,0,.17-.01.26-.02.64-.03,1.29-.07,1.93-.1,1.35-.07,2.7-.15,4.02-.19.67-.03,1.32-.04,1.97-.05.68,0,1.13,0,1.7.01.52,0,1.05.05,1.58.11l.79.11.89.14c1.89.32,3.84.58,5.8.61.99.02,1.98,0,2.96-.02.84-.03,1.67-.07,2.5-.1.74-.04,1.48-.07,2.21-.11l1-.04c.35-.01.69-.02,1.03-.03,2.92-.08,5.69-.16,8.18-.22,4.98-.15,8.85-.28,10.56-.39-4.6.03-14.04.16-11.52.01-1.47.08-3.72.16-6.51.25-.66.02-1.36.05-2.09.07-.73.04-1.48.08-2.26.12-.87.04-1.76.08-2.68.13-1.04.04-2.22.06-3.36.04-1.82-.02-3.68-.25-5.55-.56l-.99-.16-.82-.11c-.55-.07-1.12-.11-1.69-.12-1.34-.04-3.31,0-5.2.09-1.46.07-2.9.14-4.34.21.01-.04-.15-.08-.76-.11l.04.15c-.35.02-.71.03-1.06.05-.15,0-.29,0-.44.01-.06-.03-.12-.05-.16-.08l-.14.09c-1.45.04-2.87.08-4.26.12-.02-.1.53-.22,1.16-.32-.12-.01-.24-.03-.37-.04.28-.02.57-.04.86-.06,0,0-.03.02-.05.03.12-.02.25-.03.36-.05,2.84-.19,5.77-.43,8.89-.7-.05.04.46.04.09.1-.13.02-.36.05-.73.09,2.15-.19,4.23-.37,6.25-.5,1.72-.12,3.39-.2,5.03-.23,1.77-.03,3.53-.07,5.28-.1v.07s6.81-.19,6.81-.19c1.21.06,2.41.11,3.6.16,1.87.08,3.68.13,5.43.15.87,0,1.73,0,2.57-.01.33,0,.66,0,.98,0,.27,0,.55,0,.82,0,2.19.05,4.46.28,6.86.5.28.02.57.05.85.07l-8.99.24,6.96-.05,2.99-.12c1.87.15,3.83.27,5.93.26.73,0,1.29-.01,1.89-.02.57-.01,1.15-.03,1.73-.04,1.07-.03,2.16-.05,3.28-.08,1.26-.03,2.35-.03,2.93-.01.58.02,1.1.05,1.6.09.52.04,1.08.11,1.61.16,1.09.12,2.14.25,3.12.34,2.1.2,3.59.22,5.06.19.97-.03,1.99-.07,3.34-.12l-1.78.03-1.11.02c-.43,0-.9,0-1.35,0-.91-.02-1.82-.07-2.72-.14-.93-.08-1.77-.17-2.52-.26.74.08,1.49.16,2.3.23.78.06,1.51.1,2.19.12.68.02,1.31.02,1.9,0,.49-.02.93-.03,1.34-.04,1.53-.05,2.5-.1,3.04-.13,1.08-.07.43-.12-.97-.15-.7,0-1.59-.02-2.55-.03-.26,0-.53,0-.8,0-.31,0-.63-.01-.94-.02-.04,0-.08,0-.12,0,2.2-.01,4.26-.08,6.14-.15,5.38-.21,11.6.12,19.09.83-1.18.06-2.37.13-3.6.2,1.41-.03,2.9-.07,4.43-.12.76.07,1.51.15,2.29.23.92.09,1.91.17,2.92.22-.83-.06-1.71-.14-2.91-.27-.51-.07-1.06-.13-1.62-.2.7-.02,1.43-.04,2.15-.07,1.83.17,3.73.25,5.3.25,1.75,0,3.26-.04,4.59-.1-1.73.04-3.62.07-5.46.02-1.24-.03-2.45-.11-3.5-.2.82-.03,1.64-.06,2.48-.08,0,0,.01,0,.02,0,1.3.05,2.57.05,3.77.04,1.2-.02,2.33-.05,3.36-.09.82-.03,1.67-.06,2.52-.09.41,0,.81,0,1.23.03.49.03,1.23.11,2.17.21,1.87.2,4.76.58,8.19.65,2.46.05,4.58,0,6.31-.04,1.74-.04,3.03-.06,3.99-.03,1.29.03,1.98.11,2.47.19-.5-.1-1.22-.19-2.56-.23-1.9-.08-5.43.12-10.21.03-3.87-.1-6.95-.55-8.78-.74-2.04-.21-2.03-.22-3.51-.18-1.87.06-4.16.16-6.47.16-.01,0-.02,0-.04,0,3.01-.11,6.15-.22,9.41-.33,1.51-.05,3.06-.1,4.61-.15,1.41.14,3.03.26,4.82.31,3.87.08,7.09-.07,9.31-.05,1.73,0,2.82.09,3.67.24l-.21.96s-.03,0-.05,0c.02,0,.03,0,.05.01l-.32,1.45c-3.72.02-7.65.1-11.42.21-.39,0-.78,0-1.18-.01-3.59-.08-6.36-.43-8.15-.62-.91-.1-1.59-.17-2.08-.21-.26-.02-.38-.02-.53-.03h-.44c-.15,0-.29,0-.44,0l-1.25.05c-1.06.04-2.13.08-3.21.12-1.22.04-2.61.06-4.17.03-1.55-.03-3.37-.11-5.1-.29-4.23-.4-8.72-.82-13.65-1.03,3.52.21,5.25.41,5.65.47.41.07-.48.03-1.87-.03-1.39-.06-3.27-.14-4.89-.16-1.63-.03-2.99,0-3.51.02,5.17.06,11.78.57,18.19,1.14,2.28.22,4.63.28,6.47.26,1.87-.02,3.43-.09,4.7-.16.99-.06,1.93-.11,2.8-.17.3-.03.58-.04.84-.04-.78.1-.3.18.1.28.25.05.65.12.6.16,0,.04-.62.02-1.04.07.31-.01,1.38.07,3.23.27.4.04.85.09,1.34.14-3.35.13-6.21.27-8.13.37-2.25.07-2.11,0,.29-.14-1.68.08-3.32.17-4.93.25-.17,0-.33,0-.5,0-1.29-.02-2.57-.08-3.61-.15-1.03-.07-1.83-.16-2.33-.22-.68-.09-.7-.12-.29-.11-1.93-.14-1.32-.04.28.17,1.42.19,3.57.33,5.04.39-11.5.6-21.4,1.19-31.15,1.53-1.82.07-3.66.12-5.49.17,1.56-.04,3.13-.07,4.74-.12,7.87-.21,15.75-.51,23.58-.82,6.42-.26,12.81-.52,19.16-.75.22.02.44.04.71.06,1.26.12,2.89.29,4.45.4,1.04.07,2.08.12,3.06.15-1.35-.06-2.68-.17-3.82-.28-1.34-.13-2.46-.26-3.36-.37,2.06-.08,4.12-.14,6.17-.21.8.04,1.63.08,2.5.09,4.16.05,7.44-.15,9.45-.16,1.85-.02,2.55.05,3,.12l-.13.58s.03,0,.04,0l.13-.58s.07.01.1.02l.1-.46c1.61-.03,3.22-.07,4.82-.09.16,0,.31,0,.4,0l36.63.12s-.07-.1-.11-.15l-36.51-.27ZM747.23,53.26s.02.07.03.1l.04.13s.02.08.03.12c.02.1.05.2.07.3-.05-.22-.1-.44-.16-.65ZM747.36,53.79c.03.12.06.23.08.35-.02-.07-.04-.14-.05-.21-.01-.05-.02-.09-.03-.14ZM747.52,54.51c-.04-.18-.08-.36-.13-.55.03.13.06.25.09.37,0,0,0,0,0,0,.02.07.03.13.04.2.01.06.03.13.04.19,0-.04-.02-.08-.03-.12.02.1.04.19.06.29l-.08-.38ZM747.85,56.13h0s.01.05.01.08c0-.02-.01-.06-.01-.08ZM747.92,56.64v-.05s0,.08.01.12v-.07ZM748.01,57.39c0-.06,0-.13-.01-.19,0-.1-.02-.2-.03-.29v-.06s0,.02,0,.03c0,0,0-.01,0-.01,0,.02,0,.05,0,.07,0,0,0,.03,0,.04v.07s0-.04,0-.04c0,.05.01.1.02.15v.02s0,0,0,0c0,.02,0,.04,0,.06,0,.01,0,.02,0,.03h0s0,.13,0,.13ZM748.62,57.45c.02-.14.04-.29.06-.43,0,0,0-.02,0-.03l-.06.45ZM749.11,54.42l-.2,1.2s0,0,0,0l.21-1.25v-.02s0,.08,0,.08ZM749.16,54.08s0-.04,0-.06v-.06s0,.11,0,.11ZM749.24,53.6v-.05c-.02.17-.04.26-.05.32.02-.09.05-.31.1-.58h0s-.06.32-.06.32ZM749.6,29.96l.3.05.2.05c-2.83-.23-4.41-.05-4.72-.24.13-.03.25-.05.33-.05-.17-.03-.26-.06-.38-.08,0-.02-.01-.03,0-.06l4.15.3s.08.01.12.02ZM738.44,28.53c2.35.14,4.56.37,6.53.65.15.02.3.05.45.07-.21,0-.43.02-.64.02.04-.02.08-.03.1-.05-.04.02-.1.03-.18.05-1.83.06-3.81.07-5.61-.2-2.28-.16-2.33-.39-2.48-.62.61.03,1.24.04,1.83.08ZM705.21,76.74c-.05,0-.11-.01-.16-.02.06,0,.13,0,.2,0,0,.01-.03.02-.04.03ZM374.8,31.96c1.16-.06,2.27-.09,3.21,0,.2.02.38.05.55.08-.14.02-.33.04-.6.05-.72.01-1.89-.05-3.79-.1.21-.01.42-.03.62-.04ZM368.95,31.7c.17.11.41.18.68.25-.6.01-1.24.03-1.93.05.44-.07.86-.16,1.25-.3ZM359.78,32.3c.32,0,.64-.02.94-.03.62-.01,1.2-.02,1.74-.03.54-.01,1.03-.02,1.5-.03-1.31.1-2.72.25-4.21.44-.26-.09-.49-.18-.69-.3.25-.02.49-.04.72-.06ZM324.08,33.71c-.19,0-.4.03-.58.03-1.43.04-3.06-.08-4.87-.27,1.76.07,3.58.15,5.45.24ZM234.74,34.19c1.34-.15,2.69-.16,4.12-.07,2.64.1,5-.13,6.69-.36,1.72-.25,2.81-.49,3.43-.78-.02.06.88-.05,1.56-.05.71,0,1.24.09,1.17.32.64-.85,2.57-.23,4.97-.18.89-.13-.62-.3-1.17-.58,1.66.04,3.67.19,5.93.28,1.32.23,2.23.45,2.38.61.15.16-.51.29-2.02.23.22.02.45.04.69.05-.39.03-.77.06-1.12.09-4.42.94-9.16,1.46-13.59,1.48-1.1,0-2.2-.01-3.25-.08-1.25-.06-2.49-.11-3.72-.17-2.59-.14-5.06-.07-7.39.01l.94-.2c-.63.01-1.44.02-2.41.04.75-.3,1.72-.51,2.8-.63ZM219.38,34.79c2.76.02,4.2-.02,5.12.05.42.02.72.06.96.11-1.74.05-3.65.12-5.68.22-.23,0-.47.02-.7.03l.3-.41ZM200.51,36.32c.54-.08,1.07-.15,1.61-.23l.83-.13c.55-.08,1.09-.15,1.64-.21,2.16-.23,4.31-.27,6.36-.23.53,0,1.05.02,1.55.03-3.85.23-7.91.5-11.99.77,0,0,0,0,.01,0ZM100.5,38.41l1.46-.2c.34-.05.68-.09,1.03-.12.69-.07,1.4-.12,2.13-.15,1.46-.07,3.04-.05,4.75,0,1.84.06,3.67.13,5.52.19l3.04.06h.78s.93,0,.93,0c.64,0,1.24-.04,1.85-.07,2.41-.14,4.57-.45,6.43-.69,1.84-.25,3.43-.45,4.72-.52.66-.04,1.25-.04,1.82-.03l2.68.16c2.38.11,4.69.05,6.87-.09.79.18-.13.25-1.17.39,5.42-.39,9.6-1.06,13.1-1.22,3.4-.2,7.24.03,11.85,0,2.57.29,3.37.61,4.18.82-.2-.06.49-.11,1.94-.24.72-.06,1.63-.16,2.71-.28.54-.08,1.12-.16,1.74-.24.53-.09,1.09-.18,1.68-.28.92-.18,2.35-.27,4.63-.09,2.24.15,5.3.6,9.1.76.64.02,1.3.02,1.98.02-7.56.45-14.97.75-21.08.63-1.58-.04-3.09-.08-4.5-.12-1.4-.07-2.7-.14-3.88-.21-.74-.04-1.45-.07-2.12-.1-.69,0-1.36-.03-1.95-.01-1.2.02-2.19.07-2.99.13l1.72.07c-2.67.25-4.57.43-6.07.56-1.4.11-2.37.13-3.26.1-1.6-.08-2.99-.15-6.3-.31.19.26-.07.49-.61.69-.14.05-.27.1-.48.14-.21.04-.44.08-.69.12-.49.07-1.05.14-1.64.2-2.37.23-5.38.37-7.09.45l.13-.23c-1.28.07-3,.21-5,.47-1,.13-2.07.29-3.18.48-.87.16-1.77.33-2.69.5-.43.07-.9.12-1.4.16-4.9-.39-9.76-.86-12.37-.98-2.67-.24-5.71-.52-9.02-.76-.52-.03-1.06-.07-1.59-.1.11-.01.21-.02.31-.04ZM72.03,38.96c1.1-.09,2.23-.2,3.41-.37l1.04-.11c.31-.05.67-.05,1.01-.08,2.2-.14,4.74-.03,7.62.13-1.98.21-3.81.45-5.46.6-1.57.14-2.99.22-4.28.2-1.73-.06-3.57-.12-5.31-.13l-.34-.08c.75-.04,1.51-.09,2.31-.15ZM39.11,73.79s-.04,0-.05,0l-35.73-7.54,29.19-6.73c.13.25.26.51.42.75.46.67,1.09,1.27,1.85,1.79l-13.47,3.1-2.98.66h.05s-1.43.34-1.43.34l1.78.37,1.35-.33,23.89,5.16-1.27.17-23.96-5-1.17.29,26.14,5.11c-.48.06-.99.13-1.55.21.47.03,1.67.03,1.18.13.39-.04.84-.1,1.3-.16l1.84.36c-.04.06-.09.12-.13.17-.18.25-.33.5-.49.75-1.97-.12-4.39.1-6.75.39ZM32.5,87.18c-.5-.22-.98-.45-1.45-.7-.45-.27-.89-.56-1.3-.85-.42-.3-.81-.6-1.18-.91-.34-.3-.64-.6-.93-.9-.56-.59-1.13-1.22-1.48-1.71-.63-.88-1.08-1.63-1.38-2.17.38-.13.8-.27,1.26-.42.73-.22,1.54-.47,2.37-.73.77-.14.73-.14.39-.12.92-.29,1.87-.59,2.77-.87.9-.25,1.75-.49,2.46-.7.36.07-2.15.57-2.13.7l4.31-.94c-.3.15-.08.18-.7.37.35-.1.64-.2.98-.31.45-.15.98-.29,1.85-.42-.35.09,0,.06-.36.16.83-.26,2.07-.51,3.36-.71.39.06.76.12.84.16.77-.15,1.52-.3,1.07-.44.25-.03.5-.06.73-.08l.66.04c-.39.88-.67,1.74-.89,2.59-.15.03-.33.06-.54.1-.97.19-2.4.47-2.4.28-1.01.37-2.26.52-3.17.65-.9.14-1.43.18-.9.2,0,.09.61,0,1.38-.17.76-.13,1.68-.32,2.35-.47.34-.03.35.03.01.12l2.36-.44c.42-.11.7-.18.9-.23-.02.09-.05.18-.07.26l.75.55c-2.42,0-5.82.42-8.26.51,0-.05-.09-.1.07-.15l-2.01.36,2.59-.15-2.19.52-1.26-.06c-2.9.26,1.66.33-.76.48.14.13-.33.34-1.4.38-.2-.03-.19-.09.02-.13l-.48.03.16-.1-.3.11-1,.07c.11.06.25.1.43.14l-.82.29.71-.02.39-.23c.58.07,1.39.05,2.31,0,1.4-.09,3.01-.23,4.34-.23l.03-.39c-1.34.15-1.35.47-2.65.48.46-.22,1.54-.44.9-.5l2.63-.17-.44-.16c1.56-.27,4.1-.55,4.8-.71-.23-.01-1.15,0-.92-.12l3.15-.21.73.54-1.05.07-.32.2,1.44-.21.09.07c-.02.1-.06.21-.08.31-.08.33-.19.66-.3.99l-.48.07c.01-.19-.48.16.47-.04,0,0,0,0,0,0-.1.03-.14.06-.15.08-.12.02-.23.04-.37.06l-.3-.23c-.09.03-.2.05-.29.08-.25-.07-.49-.14-.75-.21l-1.41.02s-.29.3-.74.82c-.63.1-1.26.2-1.87.29-1.14.22-2.16.41-2.86.62h-.61c.19.01.37.02.54.02-.32.1-.57.2-.71.31-.64.15-.65.09-.33-.02-.46.13-.91.28-1.37.44.12-.03.25-.07.37-.1.69-.14,1.35-.24,1.37-.15l-.32.11,2.19-.56c.09,0,.18,0,.27,0l-.12.12c-.09.01-.18.02-.28.04l.26-.03-.04.04-.22-.02c.57.11,1.53.19,2.57.28-.15.2-.31.41-.48.63-.91-.26-2.03-.56-2.94-.75l.03.25c.86.22,1.71.46,2.56.73-.12,0-.26.01-.43,0-.76-.21-1.44-.39-2.11-.56l.05.43s-.08,0-.12,0l-.06-.46s-.06-.02-.09-.02l.06.48c-.96-.06-1.74-.07-1.62.16l1.32.29.02.2c.12.03.25.07.37.1l-.03-.22.09.02.03.22s.09.02.13.03l-.03-.23.85.19c.36.02.66.04.92.05.09.03.18.06.27.09-.08.11-.15.24-.23.35-.3-.04-.79-.14-1.78-.38l.33,2.64s-.09-.03-.13-.04l-.32-2.63s-.06-.01-.09-.02l.32,2.63c-.12-.03-.24-.07-.37-.1l-.02-.14.21-.02c-.08-.02-.15-.03-.22-.05l-.31-2.49c-.09-.02-.17-.05-.26-.07l.31,2.49c-.44-.11-.88-.21-1.29-.31v.05c.59.15,1.12.3,1.31.39v.04s-.13.01-.13.01c.06,0,.1,0,.13,0v.03s-.09-.02-.13-.04c-.47-.1-.86-.16-1.15-.2l.04.31c.44.07.85.14,1.28.23l.1.77-.65-.12c-.21-.04-.43-.09-.64-.14l-.09-.75s-.02,0-.02,0l.09.75s-.09-.02-.14-.03l-.09-.74c-.05,0-.11-.02-.16-.03l.09.72c-.68-.17-1.36-.39-2.06-.71ZM35.09,88.48s-.09-.02-.14-.04l-.03-.24c.44.1.86.17,1.28.23l.03.22c-.32.01-.62.03-.93.04-.02,0-.04,0-.06-.01l-.16-.21ZM34.9,88.2l.03.24s-.09-.02-.14-.03l-.03-.24s.09.03.14.04ZM37.94,105.63c-.73-.05.15-.22.27-.35.02,0,.04.01.07.02l.04.29c-.12.01-.24.03-.38.04Z"/>
      <path d="M31.53,38.48c-1.73.12-3.87.4-6.67.51,1.59.28,3.67.25,5.64.08,1.99-.17,3.82-.43,5.24-.52-1.12-.19-2.47-.2-4.21-.07Z"/>
      <path d="M35.8,38.55s.03,0,.04-.01c-.04,0-.07,0-.1,0,.02,0,.04,0,.06,0Z"/>
      <path d="M773.04,10.85c.87.34,1.44.52,1.79.54-.32-.06-.87-.22-1.79-.54Z"/>
      <polygon points="747.49 54.34 747.49 54.33 747.49 54.33 747.49 54.34"/>
      <path d="M748.31,60.72s0-.01,0-.02c0,.03,0,.06,0,.09,0,.05,0,.09,0,.14,0,.07,0,.16,0,.21,0,0,0,0,0,0,0-.05,0-.11,0-.17,0,0,0,0,0,0,0,.05,0,.1,0,.15,0-.08,0-.15,0-.22,0-.12,0-.24,0-.36,0,.05,0,.1,0,.14,0,.01,0,.02,0,.03Z"/>
      <path d="M748.3,61.16s0,.05,0,.07c0,.01,0,.02,0,.04v.04s0,.03,0,.04c0,.02,0,.04,0,.06,0,0,0-.02,0-.03v.12s0-.02,0-.02c0,0,0,.01,0,.02,0,0,0,0,0,0v.02s0-.02,0-.04c0,.01,0,.02,0,.04h0s0,0,0,0c0,0,0,0,0,.01,0-.12-.02-.26-.02-.42,0,.02,0,.04,0,.06,0-.01,0-.02,0-.03Z"/>
      <polygon points="748.32 61.46 748.32 61.48 748.32 61.46 748.32 61.46"/>
      <path d="M748.32,61.49s0-.05,0-.08t0,0v.08Z"/>
      <path d="M747.53,54.53c-.01-.06-.03-.13-.04-.19l.04.17s.01.06.02.09c0-.02,0-.04-.01-.07Z"/>
      <polygon points="748.32 61.49 748.32 61.54 748.32 61.54 748.32 61.48 748.32 61.49"/>
      <path d="M748.36,59.66v.03s0,.03,0,.03c0,.01,0,.02,0,.04,0,.03,0,.05,0,.08,0-.03,0-.06,0-.09l-.02.34s0,.04,0,.05c0-.02,0-.03,0-.04l-.02.34s0,.03,0,.04c0-.04,0-.09,0-.13,0,.04,0,.08,0,.13,0,.02,0,.05,0,.07,0-.08,0-.16.01-.24,0-.03,0-.07,0-.1,0-.19.02-.37.04-.56,0,.02,0,.04,0,.06,0-.02,0-.03,0-.05Z"/>
      <path d="M748.47,58.59s0,.02,0,.03c0-.02,0-.03,0-.05,0,0,0,0,0,.01Z"/>
      <path d="M747.97,56.94s0-.04,0-.06c0,0,0,.02,0,.03v.09s0-.05,0-.07Z"/>
      <path d="M748.48,58.49c0,.06-.01.12-.02.18,0,0,0,.01,0,.02.04-.33.08-.67.13-1l.02-.11s0,.01,0,.02c-.04.3-.08.59-.12.9Z"/>
      <path d="M748.48,58.51s0,.04,0,.07c0-.03,0-.06.01-.09,0-.03,0-.07.01-.11l-.02.13Z"/>
      <path d="M748.04,57.8s0,0,0,0c.06.86.13,1.73.19,2.59.02.24.04.49.05.73-.08-1.09-.16-2.2-.25-3.32Z"/>
      <path d="M748.31,61.42s0,.05,0,.08c0-.03,0-.05,0-.08,0,0,0,0,0,0Z"/>
      <path d="M748.31,61.42s0,0,0,0v-.06s0,0,0,0c0,0,0,0,0,0h0c0-.08-.01-.16-.02-.23,0,.04,0,.08,0,.12l-.03-.37c.01.16.02.33.04.49,0,.01,0,.02,0,.03v.07s0-.02,0-.03c0,0,0,0,0,0Z"/>
      <path d="M748.33,60.09c0-.08,0-.17.01-.25,0,.1,0,.17-.01.26h0Z"/>
      <path d="M748.31,60.47h0s0,.06,0,.09c0-.03,0-.06,0-.09Z"/>
      <path d="M748.46,58.7s0-.02,0-.03,0-.02,0-.04c0,.03,0,.05,0,.07Z"/>
      <polygon points="748.45 58.73 748.45 58.76 748.45 58.73 748.45 58.73"/>
      <path d="M748.31,60.71s0-.01,0-.02c0-.04,0-.08,0-.13,0,.02,0,.04,0,.07,0,.03,0,.05,0,.08Z"/>
      <path d="M748.46,58.7s0,0,0,0c0,0,0,0,0,0,0,0,0,0,0,0,0,.02,0,.03,0,.05h0s0,0,0,0h0s0,0,0,0c-.03.29-.06.55-.08.78v.04s0,0,0,.01c0,.02,0,.05,0,.07v-.05s0,.02,0,.04c.03-.33.07-.65.1-.97,0,0,0,.02,0,.02,0,0,0,0,0,0Z"/>
      <path d="M748,57.26v-.08s0,.02,0,.03c0,.02,0,.03,0,.05h0Z"/>
      <path d="M748.45,58.73s0-.01,0-.02c0,0,0,0,0,.01h0Z"/>
      <path d="M752.17,29.35c2.79.77,5.79,1.21,9.77,1.39-2.21-.76-6.1-1.06-9.77-1.39Z"/>
      <path d="M752.1,29.33s-.04,0-.06,0c.05,0,.09,0,.13.01-.03,0-.05-.01-.07-.02Z"/>
    </g>
  </g>
</svg>