<svg width="18" height="17" viewBox="0 0 18 17" fill="none" xmlns="http://www.w3.org/2000/svg">
<path fill-rule="evenodd" clip-rule="evenodd" d="M9 0.1875C6.67936 0.1875 4.45376 1.06328 2.81282 2.62217C1.17187 4.18107 0.25 6.29539 0.25 8.5C0.25 10.7046 1.17187 12.8189 2.81282 14.3778C4.45376 15.9367 6.67936 16.8125 9 16.8125C11.3206 16.8125 13.5462 15.9367 15.1872 14.3778C16.8281 12.8189 17.75 10.7046 17.75 8.5C17.75 6.29539 16.8281 4.18107 15.1872 2.62217C13.5462 1.06328 11.3206 0.1875 9 0.1875ZM9.625 8.25419V3.75H8.375V8.74581L12.3075 12.4829L13.1925 11.6421L9.625 8.25419Z" fill="black"/>
</svg>
