<svg width="16" height="19" viewBox="0 0 16 19" fill="none" xmlns="http://www.w3.org/2000/svg">
<path d="M7.73972 0.773987C3.6311 0.773987 0.308105 3.55031 0.308105 6.98303C0.308105 11.6398 7.73972 18.5141 7.73972 18.5141C7.73972 18.5141 15.1713 11.6398 15.1713 6.98303C15.1713 3.55031 11.8483 0.773987 7.73972 0.773987ZM7.73972 9.20054C7.0358 9.20054 6.3607 8.96691 5.86295 8.55105C5.3652 8.13518 5.08557 7.57115 5.08557 6.98303C5.08557 6.3949 5.3652 5.83087 5.86295 5.41501C6.3607 4.99914 7.0358 4.76551 7.73972 4.76551C8.44364 4.76551 9.11874 4.99914 9.61649 5.41501C10.1142 5.83087 10.3939 6.3949 10.3939 6.98303C10.3939 7.57115 10.1142 8.13518 9.61649 8.55105C9.11874 8.96691 8.44364 9.20054 7.73972 9.20054Z" fill="black"/>
</svg>
