<svg width="30" height="30" viewBox="0 0 30 30" fill="none" xmlns="http://www.w3.org/2000/svg">
<path d="M28.9894 26.7186L17.6603 15.3797L17.3072 15.0263L17.6603 14.6729L28.9927 3.33079L28.9988 3.32464L28.9989 3.32469C29.1556 3.17317 29.2807 2.99189 29.3667 2.79142C29.4527 2.59096 29.498 2.37533 29.4999 2.15714C29.5018 1.93894 29.4603 1.72255 29.3777 1.52062C29.2952 1.31869 29.1733 1.13526 29.0192 0.981029C28.8651 0.826798 28.6819 0.70485 28.4802 0.62228C28.2786 0.539711 28.0626 0.498167 27.8447 0.500062C27.6269 0.501957 27.4116 0.547252 27.2114 0.633317C27.0113 0.719383 26.8302 0.844501 26.6788 1.00139L26.6727 1.00764L26.6727 1.00759L15.3403 12.3497L14.9866 12.7037L14.6329 12.3497L3.30059 1.00764C3.30058 1.00763 3.30056 1.00761 3.30054 1.00759C2.99278 0.699683 2.57553 0.52679 2.14055 0.52679C1.70561 0.52679 1.28838 0.699663 0.980618 1.00754L28.9894 26.7186ZM28.9894 26.7186C29.2866 27.0281 29.4511 27.4419 29.4473 27.8714C29.4436 28.3023 29.2709 28.7144 28.9666 29.019C28.6623 29.3235 28.2508 29.4962 27.8206 29.4999C27.3918 29.5037 26.9786 29.3392 26.6694 29.0418L15.3403 17.7029L14.9866 17.3489L14.6329 17.7029L3.30383 29.0418C2.99461 29.3392 2.58139 29.5037 2.15261 29.4999C1.72248 29.4962 1.31094 29.3235 1.00665 29.019C0.702341 28.7144 0.529654 28.3023 0.525913 27.8714C0.522184 27.4419 0.686651 27.0281 0.983868 26.7186L12.3129 15.3797L12.666 15.0263L12.3129 14.6729L0.980618 3.33084C0.980605 3.33083 0.980591 3.33081 0.980578 3.3308C0.672913 3.02276 0.5 2.60494 0.5 2.16919C0.5 1.73347 0.672888 1.31568 0.980512 1.00764L28.9894 26.7186Z" fill="black" stroke="black"/>
</svg>
