<svg width="16" height="19" viewBox="0 0 16 19" fill="none" xmlns="http://www.w3.org/2000/svg">
<path d="M7.73996 0.774048C3.63134 0.774048 0.30835 3.55038 0.30835 6.98309C0.30835 11.6399 7.73996 18.5142 7.73996 18.5142C7.73996 18.5142 15.1716 11.6399 15.1716 6.98309C15.1716 3.55038 11.8486 0.774048 7.73996 0.774048ZM7.73996 9.2006C7.03604 9.2006 6.36095 8.96697 5.8632 8.55111C5.36545 8.13524 5.08582 7.57121 5.08582 6.98309C5.08582 6.39497 5.36545 5.83093 5.8632 5.41507C6.36095 4.9992 7.03604 4.76557 7.73996 4.76557C8.44389 4.76557 9.11898 4.9992 9.61673 5.41507C10.1145 5.83093 10.3941 6.39497 10.3941 6.98309C10.3941 7.57121 10.1145 8.13524 9.61673 8.55111C9.11898 8.96697 8.44389 9.2006 7.73996 9.2006Z" fill="#D71515"/>
</svg>
