<svg width="20" height="19" viewBox="0 0 20 19" fill="none" xmlns="http://www.w3.org/2000/svg">
<path fill-rule="evenodd" clip-rule="evenodd" d="M10 1.1875C7.67936 1.1875 5.45376 2.06328 3.81282 3.62217C2.17187 5.18107 1.25 7.29539 1.25 9.5C1.25 11.7046 2.17187 13.8189 3.81282 15.3778C5.45376 16.9367 7.67936 17.8125 10 17.8125C12.3206 17.8125 14.5462 16.9367 16.1872 15.3778C17.8281 13.8189 18.75 11.7046 18.75 9.5C18.75 7.29539 17.8281 5.18107 16.1872 3.62217C14.5462 2.06328 12.3206 1.1875 10 1.1875ZM10.625 9.25419V4.75H9.375V9.74581L13.3075 13.4829L14.1925 12.6421L10.625 9.25419Z" fill="#D71515"/>
</svg>
